<?xml version="1.0" encoding="utf-8" standalone="no"?>
<!DOCTYPE svg PUBLIC "-//W3C//DTD SVG 1.1//EN"
  "http://www.w3.org/Graphics/SVG/1.1/DTD/svg11.dtd">
<svg xmlns:xlink="http://www.w3.org/1999/xlink" width="576pt" height="576pt" viewBox="0 0 576 576" xmlns="http://www.w3.org/2000/svg" version="1.1">
 <metadata>
  <rdf:RDF xmlns:dc="http://purl.org/dc/elements/1.1/" xmlns:cc="http://creativecommons.org/ns#" xmlns:rdf="http://www.w3.org/1999/02/22-rdf-syntax-ns#">
   <cc:Work>
    <dc:type rdf:resource="http://purl.org/dc/dcmitype/StillImage"/>
    <dc:date>2024-11-11T21:39:25.073841</dc:date>
    <dc:format>image/svg+xml</dc:format>
    <dc:creator>
     <cc:Agent>
      <dc:title>Matplotlib v3.7.3, https://matplotlib.org/</dc:title>
     </cc:Agent>
    </dc:creator>
   </cc:Work>
  </rdf:RDF>
 </metadata>
 <defs>
  <style type="text/css">*{stroke-linejoin: round; stroke-linecap: butt}</style>
 </defs>
 <g id="figure_1">
  <g id="patch_1">
   <path d="M 0 576 
L 576 576 
L 576 0 
L 0 0 
z
" style="fill: #ffffff"/>
  </g>
  <g id="axes_1">
   <g id="patch_2">
    <path d="M 72 199.567059 
L 518.4 199.567059 
L 518.4 69.12 
L 72 69.12 
z
" style="fill: #ffffff"/>
   </g>
   <g id="matplotlib.axis_1">
    <g id="xtick_1">
     <g id="line2d_1">
      <path d="M 74.496832 199.567059 
L 74.496832 69.12 
" clip-path="url(#pa40254eb80)" style="fill: none; stroke: #b0b0b0; stroke-width: 0.8; stroke-linecap: square"/>
     </g>
     <g id="line2d_2">
      <defs>
       <path id="m9c846dcfd2" d="M 0 0 
L 0 3.5 
" style="stroke: #000000; stroke-width: 0.8"/>
      </defs>
      <g>
       <use xlink:href="#m9c846dcfd2" x="74.496832" y="199.567059" style="stroke: #000000; stroke-width: 0.8"/>
      </g>
     </g>
     <g id="text_1">
      <!-- 1520 -->
      <g transform="translate(61.771832 214.165496) scale(0.1 -0.1)">
       <defs>
        <path id="DejaVuSans-31" d="M 794 531 
L 1825 531 
L 1825 4091 
L 703 3866 
L 703 4441 
L 1819 4666 
L 2450 4666 
L 2450 531 
L 3481 531 
L 3481 0 
L 794 0 
L 794 531 
z
" transform="scale(0.015625)"/>
        <path id="DejaVuSans-35" d="M 691 4666 
L 3169 4666 
L 3169 4134 
L 1269 4134 
L 1269 2991 
Q 1406 3038 1543 3061 
Q 1681 3084 1819 3084 
Q 2600 3084 3056 2656 
Q 3513 2228 3513 1497 
Q 3513 744 3044 326 
Q 2575 -91 1722 -91 
Q 1428 -91 1123 -41 
Q 819 9 494 109 
L 494 744 
Q 775 591 1075 516 
Q 1375 441 1709 441 
Q 2250 441 2565 725 
Q 2881 1009 2881 1497 
Q 2881 1984 2565 2268 
Q 2250 2553 1709 2553 
Q 1456 2553 1204 2497 
Q 953 2441 691 2322 
L 691 4666 
z
" transform="scale(0.015625)"/>
        <path id="DejaVuSans-32" d="M 1228 531 
L 3431 531 
L 3431 0 
L 469 0 
L 469 531 
Q 828 903 1448 1529 
Q 2069 2156 2228 2338 
Q 2531 2678 2651 2914 
Q 2772 3150 2772 3378 
Q 2772 3750 2511 3984 
Q 2250 4219 1831 4219 
Q 1534 4219 1204 4116 
Q 875 4013 500 3803 
L 500 4441 
Q 881 4594 1212 4672 
Q 1544 4750 1819 4750 
Q 2544 4750 2975 4387 
Q 3406 4025 3406 3419 
Q 3406 3131 3298 2873 
Q 3191 2616 2906 2266 
Q 2828 2175 2409 1742 
Q 1991 1309 1228 531 
z
" transform="scale(0.015625)"/>
        <path id="DejaVuSans-30" d="M 2034 4250 
Q 1547 4250 1301 3770 
Q 1056 3291 1056 2328 
Q 1056 1369 1301 889 
Q 1547 409 2034 409 
Q 2525 409 2770 889 
Q 3016 1369 3016 2328 
Q 3016 3291 2770 3770 
Q 2525 4250 2034 4250 
z
M 2034 4750 
Q 2819 4750 3233 4129 
Q 3647 3509 3647 2328 
Q 3647 1150 3233 529 
Q 2819 -91 2034 -91 
Q 1250 -91 836 529 
Q 422 1150 422 2328 
Q 422 3509 836 4129 
Q 1250 4750 2034 4750 
z
" transform="scale(0.015625)"/>
       </defs>
       <use xlink:href="#DejaVuSans-31"/>
       <use xlink:href="#DejaVuSans-35" x="63.623047"/>
       <use xlink:href="#DejaVuSans-32" x="127.246094"/>
       <use xlink:href="#DejaVuSans-30" x="190.869141"/>
      </g>
     </g>
    </g>
    <g id="xtick_2">
     <g id="line2d_3">
      <path d="M 139.216806 199.567059 
L 139.216806 69.12 
" clip-path="url(#pa40254eb80)" style="fill: none; stroke: #b0b0b0; stroke-width: 0.8; stroke-linecap: square"/>
     </g>
     <g id="line2d_4">
      <g>
       <use xlink:href="#m9c846dcfd2" x="139.216806" y="199.567059" style="stroke: #000000; stroke-width: 0.8"/>
      </g>
     </g>
     <g id="text_2">
      <!-- 1530 -->
      <g transform="translate(126.491806 214.165496) scale(0.1 -0.1)">
       <defs>
        <path id="DejaVuSans-33" d="M 2597 2516 
Q 3050 2419 3304 2112 
Q 3559 1806 3559 1356 
Q 3559 666 3084 287 
Q 2609 -91 1734 -91 
Q 1441 -91 1130 -33 
Q 819 25 488 141 
L 488 750 
Q 750 597 1062 519 
Q 1375 441 1716 441 
Q 2309 441 2620 675 
Q 2931 909 2931 1356 
Q 2931 1769 2642 2001 
Q 2353 2234 1838 2234 
L 1294 2234 
L 1294 2753 
L 1863 2753 
Q 2328 2753 2575 2939 
Q 2822 3125 2822 3475 
Q 2822 3834 2567 4026 
Q 2313 4219 1838 4219 
Q 1578 4219 1281 4162 
Q 984 4106 628 3988 
L 628 4550 
Q 988 4650 1302 4700 
Q 1616 4750 1894 4750 
Q 2613 4750 3031 4423 
Q 3450 4097 3450 3541 
Q 3450 3153 3228 2886 
Q 3006 2619 2597 2516 
z
" transform="scale(0.015625)"/>
       </defs>
       <use xlink:href="#DejaVuSans-31"/>
       <use xlink:href="#DejaVuSans-35" x="63.623047"/>
       <use xlink:href="#DejaVuSans-33" x="127.246094"/>
       <use xlink:href="#DejaVuSans-30" x="190.869141"/>
      </g>
     </g>
    </g>
    <g id="xtick_3">
     <g id="line2d_5">
      <path d="M 203.936779 199.567059 
L 203.936779 69.12 
" clip-path="url(#pa40254eb80)" style="fill: none; stroke: #b0b0b0; stroke-width: 0.8; stroke-linecap: square"/>
     </g>
     <g id="line2d_6">
      <g>
       <use xlink:href="#m9c846dcfd2" x="203.936779" y="199.567059" style="stroke: #000000; stroke-width: 0.8"/>
      </g>
     </g>
     <g id="text_3">
      <!-- 1540 -->
      <g transform="translate(191.211779 214.165496) scale(0.1 -0.1)">
       <defs>
        <path id="DejaVuSans-34" d="M 2419 4116 
L 825 1625 
L 2419 1625 
L 2419 4116 
z
M 2253 4666 
L 3047 4666 
L 3047 1625 
L 3713 1625 
L 3713 1100 
L 3047 1100 
L 3047 0 
L 2419 0 
L 2419 1100 
L 313 1100 
L 313 1709 
L 2253 4666 
z
" transform="scale(0.015625)"/>
       </defs>
       <use xlink:href="#DejaVuSans-31"/>
       <use xlink:href="#DejaVuSans-35" x="63.623047"/>
       <use xlink:href="#DejaVuSans-34" x="127.246094"/>
       <use xlink:href="#DejaVuSans-30" x="190.869141"/>
      </g>
     </g>
    </g>
    <g id="xtick_4">
     <g id="line2d_7">
      <path d="M 268.656753 199.567059 
L 268.656753 69.12 
" clip-path="url(#pa40254eb80)" style="fill: none; stroke: #b0b0b0; stroke-width: 0.8; stroke-linecap: square"/>
     </g>
     <g id="line2d_8">
      <g>
       <use xlink:href="#m9c846dcfd2" x="268.656753" y="199.567059" style="stroke: #000000; stroke-width: 0.8"/>
      </g>
     </g>
     <g id="text_4">
      <!-- 1550 -->
      <g transform="translate(255.931753 214.165496) scale(0.1 -0.1)">
       <use xlink:href="#DejaVuSans-31"/>
       <use xlink:href="#DejaVuSans-35" x="63.623047"/>
       <use xlink:href="#DejaVuSans-35" x="127.246094"/>
       <use xlink:href="#DejaVuSans-30" x="190.869141"/>
      </g>
     </g>
    </g>
    <g id="xtick_5">
     <g id="line2d_9">
      <path d="M 333.376727 199.567059 
L 333.376727 69.12 
" clip-path="url(#pa40254eb80)" style="fill: none; stroke: #b0b0b0; stroke-width: 0.8; stroke-linecap: square"/>
     </g>
     <g id="line2d_10">
      <g>
       <use xlink:href="#m9c846dcfd2" x="333.376727" y="199.567059" style="stroke: #000000; stroke-width: 0.8"/>
      </g>
     </g>
     <g id="text_5">
      <!-- 1560 -->
      <g transform="translate(320.651727 214.165496) scale(0.1 -0.1)">
       <defs>
        <path id="DejaVuSans-36" d="M 2113 2584 
Q 1688 2584 1439 2293 
Q 1191 2003 1191 1497 
Q 1191 994 1439 701 
Q 1688 409 2113 409 
Q 2538 409 2786 701 
Q 3034 994 3034 1497 
Q 3034 2003 2786 2293 
Q 2538 2584 2113 2584 
z
M 3366 4563 
L 3366 3988 
Q 3128 4100 2886 4159 
Q 2644 4219 2406 4219 
Q 1781 4219 1451 3797 
Q 1122 3375 1075 2522 
Q 1259 2794 1537 2939 
Q 1816 3084 2150 3084 
Q 2853 3084 3261 2657 
Q 3669 2231 3669 1497 
Q 3669 778 3244 343 
Q 2819 -91 2113 -91 
Q 1303 -91 875 529 
Q 447 1150 447 2328 
Q 447 3434 972 4092 
Q 1497 4750 2381 4750 
Q 2619 4750 2861 4703 
Q 3103 4656 3366 4563 
z
" transform="scale(0.015625)"/>
       </defs>
       <use xlink:href="#DejaVuSans-31"/>
       <use xlink:href="#DejaVuSans-35" x="63.623047"/>
       <use xlink:href="#DejaVuSans-36" x="127.246094"/>
       <use xlink:href="#DejaVuSans-30" x="190.869141"/>
      </g>
     </g>
    </g>
    <g id="xtick_6">
     <g id="line2d_11">
      <path d="M 398.096701 199.567059 
L 398.096701 69.12 
" clip-path="url(#pa40254eb80)" style="fill: none; stroke: #b0b0b0; stroke-width: 0.8; stroke-linecap: square"/>
     </g>
     <g id="line2d_12">
      <g>
       <use xlink:href="#m9c846dcfd2" x="398.096701" y="199.567059" style="stroke: #000000; stroke-width: 0.8"/>
      </g>
     </g>
     <g id="text_6">
      <!-- 1570 -->
      <g transform="translate(385.371701 214.165496) scale(0.1 -0.1)">
       <defs>
        <path id="DejaVuSans-37" d="M 525 4666 
L 3525 4666 
L 3525 4397 
L 1831 0 
L 1172 0 
L 2766 4134 
L 525 4134 
L 525 4666 
z
" transform="scale(0.015625)"/>
       </defs>
       <use xlink:href="#DejaVuSans-31"/>
       <use xlink:href="#DejaVuSans-35" x="63.623047"/>
       <use xlink:href="#DejaVuSans-37" x="127.246094"/>
       <use xlink:href="#DejaVuSans-30" x="190.869141"/>
      </g>
     </g>
    </g>
    <g id="xtick_7">
     <g id="line2d_13">
      <path d="M 462.816674 199.567059 
L 462.816674 69.12 
" clip-path="url(#pa40254eb80)" style="fill: none; stroke: #b0b0b0; stroke-width: 0.8; stroke-linecap: square"/>
     </g>
     <g id="line2d_14">
      <g>
       <use xlink:href="#m9c846dcfd2" x="462.816674" y="199.567059" style="stroke: #000000; stroke-width: 0.8"/>
      </g>
     </g>
     <g id="text_7">
      <!-- 1580 -->
      <g transform="translate(450.091674 214.165496) scale(0.1 -0.1)">
       <defs>
        <path id="DejaVuSans-38" d="M 2034 2216 
Q 1584 2216 1326 1975 
Q 1069 1734 1069 1313 
Q 1069 891 1326 650 
Q 1584 409 2034 409 
Q 2484 409 2743 651 
Q 3003 894 3003 1313 
Q 3003 1734 2745 1975 
Q 2488 2216 2034 2216 
z
M 1403 2484 
Q 997 2584 770 2862 
Q 544 3141 544 3541 
Q 544 4100 942 4425 
Q 1341 4750 2034 4750 
Q 2731 4750 3128 4425 
Q 3525 4100 3525 3541 
Q 3525 3141 3298 2862 
Q 3072 2584 2669 2484 
Q 3125 2378 3379 2068 
Q 3634 1759 3634 1313 
Q 3634 634 3220 271 
Q 2806 -91 2034 -91 
Q 1263 -91 848 271 
Q 434 634 434 1313 
Q 434 1759 690 2068 
Q 947 2378 1403 2484 
z
M 1172 3481 
Q 1172 3119 1398 2916 
Q 1625 2713 2034 2713 
Q 2441 2713 2670 2916 
Q 2900 3119 2900 3481 
Q 2900 3844 2670 4047 
Q 2441 4250 2034 4250 
Q 1625 4250 1398 4047 
Q 1172 3844 1172 3481 
z
" transform="scale(0.015625)"/>
       </defs>
       <use xlink:href="#DejaVuSans-31"/>
       <use xlink:href="#DejaVuSans-35" x="63.623047"/>
       <use xlink:href="#DejaVuSans-38" x="127.246094"/>
       <use xlink:href="#DejaVuSans-30" x="190.869141"/>
      </g>
     </g>
    </g>
   </g>
   <g id="matplotlib.axis_2">
    <g id="ytick_1">
     <g id="line2d_15">
      <path d="M 72 199.567059 
L 518.4 199.567059 
" clip-path="url(#pa40254eb80)" style="fill: none; stroke: #b0b0b0; stroke-width: 0.8; stroke-linecap: square"/>
     </g>
     <g id="line2d_16">
      <defs>
       <path id="m85090ad314" d="M 0 0 
L -3.5 0 
" style="stroke: #000000; stroke-width: 0.8"/>
      </defs>
      <g>
       <use xlink:href="#m85090ad314" x="72" y="199.567059" style="stroke: #000000; stroke-width: 0.8"/>
      </g>
     </g>
     <g id="text_8">
      <!-- 0.0 -->
      <g transform="translate(49.096875 203.366278) scale(0.1 -0.1)">
       <defs>
        <path id="DejaVuSans-2e" d="M 684 794 
L 1344 794 
L 1344 0 
L 684 0 
L 684 794 
z
" transform="scale(0.015625)"/>
       </defs>
       <use xlink:href="#DejaVuSans-30"/>
       <use xlink:href="#DejaVuSans-2e" x="63.623047"/>
       <use xlink:href="#DejaVuSans-30" x="95.410156"/>
      </g>
     </g>
    </g>
    <g id="ytick_2">
     <g id="line2d_17">
      <path d="M 72 173.477647 
L 518.4 173.477647 
" clip-path="url(#pa40254eb80)" style="fill: none; stroke: #b0b0b0; stroke-width: 0.8; stroke-linecap: square"/>
     </g>
     <g id="line2d_18">
      <g>
       <use xlink:href="#m85090ad314" x="72" y="173.477647" style="stroke: #000000; stroke-width: 0.8"/>
      </g>
     </g>
     <g id="text_9">
      <!-- 0.2 -->
      <g transform="translate(49.096875 177.276866) scale(0.1 -0.1)">
       <use xlink:href="#DejaVuSans-30"/>
       <use xlink:href="#DejaVuSans-2e" x="63.623047"/>
       <use xlink:href="#DejaVuSans-32" x="95.410156"/>
      </g>
     </g>
    </g>
    <g id="ytick_3">
     <g id="line2d_19">
      <path d="M 72 147.388235 
L 518.4 147.388235 
" clip-path="url(#pa40254eb80)" style="fill: none; stroke: #b0b0b0; stroke-width: 0.8; stroke-linecap: square"/>
     </g>
     <g id="line2d_20">
      <g>
       <use xlink:href="#m85090ad314" x="72" y="147.388235" style="stroke: #000000; stroke-width: 0.8"/>
      </g>
     </g>
     <g id="text_10">
      <!-- 0.4 -->
      <g transform="translate(49.096875 151.187454) scale(0.1 -0.1)">
       <use xlink:href="#DejaVuSans-30"/>
       <use xlink:href="#DejaVuSans-2e" x="63.623047"/>
       <use xlink:href="#DejaVuSans-34" x="95.410156"/>
      </g>
     </g>
    </g>
    <g id="ytick_4">
     <g id="line2d_21">
      <path d="M 72 121.298824 
L 518.4 121.298824 
" clip-path="url(#pa40254eb80)" style="fill: none; stroke: #b0b0b0; stroke-width: 0.8; stroke-linecap: square"/>
     </g>
     <g id="line2d_22">
      <g>
       <use xlink:href="#m85090ad314" x="72" y="121.298824" style="stroke: #000000; stroke-width: 0.8"/>
      </g>
     </g>
     <g id="text_11">
      <!-- 0.6 -->
      <g transform="translate(49.096875 125.098042) scale(0.1 -0.1)">
       <use xlink:href="#DejaVuSans-30"/>
       <use xlink:href="#DejaVuSans-2e" x="63.623047"/>
       <use xlink:href="#DejaVuSans-36" x="95.410156"/>
      </g>
     </g>
    </g>
    <g id="ytick_5">
     <g id="line2d_23">
      <path d="M 72 95.209412 
L 518.4 95.209412 
" clip-path="url(#pa40254eb80)" style="fill: none; stroke: #b0b0b0; stroke-width: 0.8; stroke-linecap: square"/>
     </g>
     <g id="line2d_24">
      <g>
       <use xlink:href="#m85090ad314" x="72" y="95.209412" style="stroke: #000000; stroke-width: 0.8"/>
      </g>
     </g>
     <g id="text_12">
      <!-- 0.8 -->
      <g transform="translate(49.096875 99.008631) scale(0.1 -0.1)">
       <use xlink:href="#DejaVuSans-30"/>
       <use xlink:href="#DejaVuSans-2e" x="63.623047"/>
       <use xlink:href="#DejaVuSans-38" x="95.410156"/>
      </g>
     </g>
    </g>
    <g id="ytick_6">
     <g id="line2d_25">
      <path d="M 72 69.12 
L 518.4 69.12 
" clip-path="url(#pa40254eb80)" style="fill: none; stroke: #b0b0b0; stroke-width: 0.8; stroke-linecap: square"/>
     </g>
     <g id="line2d_26">
      <g>
       <use xlink:href="#m85090ad314" x="72" y="69.12" style="stroke: #000000; stroke-width: 0.8"/>
      </g>
     </g>
     <g id="text_13">
      <!-- 1.0 -->
      <g transform="translate(49.096875 72.919219) scale(0.1 -0.1)">
       <use xlink:href="#DejaVuSans-31"/>
       <use xlink:href="#DejaVuSans-2e" x="63.623047"/>
       <use xlink:href="#DejaVuSans-30" x="95.410156"/>
      </g>
     </g>
    </g>
    <g id="text_14">
     <!-- Norm. intensity -->
     <g transform="translate(42.185312 188.233686) rotate(-90) scale(0.14 -0.14)">
      <defs>
       <path id="DejaVuSans-4e" d="M 628 4666 
L 1478 4666 
L 3547 763 
L 3547 4666 
L 4159 4666 
L 4159 0 
L 3309 0 
L 1241 3903 
L 1241 0 
L 628 0 
L 628 4666 
z
" transform="scale(0.015625)"/>
       <path id="DejaVuSans-6f" d="M 1959 3097 
Q 1497 3097 1228 2736 
Q 959 2375 959 1747 
Q 959 1119 1226 758 
Q 1494 397 1959 397 
Q 2419 397 2687 759 
Q 2956 1122 2956 1747 
Q 2956 2369 2687 2733 
Q 2419 3097 1959 3097 
z
M 1959 3584 
Q 2709 3584 3137 3096 
Q 3566 2609 3566 1747 
Q 3566 888 3137 398 
Q 2709 -91 1959 -91 
Q 1206 -91 779 398 
Q 353 888 353 1747 
Q 353 2609 779 3096 
Q 1206 3584 1959 3584 
z
" transform="scale(0.015625)"/>
       <path id="DejaVuSans-72" d="M 2631 2963 
Q 2534 3019 2420 3045 
Q 2306 3072 2169 3072 
Q 1681 3072 1420 2755 
Q 1159 2438 1159 1844 
L 1159 0 
L 581 0 
L 581 3500 
L 1159 3500 
L 1159 2956 
Q 1341 3275 1631 3429 
Q 1922 3584 2338 3584 
Q 2397 3584 2469 3576 
Q 2541 3569 2628 3553 
L 2631 2963 
z
" transform="scale(0.015625)"/>
       <path id="DejaVuSans-6d" d="M 3328 2828 
Q 3544 3216 3844 3400 
Q 4144 3584 4550 3584 
Q 5097 3584 5394 3201 
Q 5691 2819 5691 2113 
L 5691 0 
L 5113 0 
L 5113 2094 
Q 5113 2597 4934 2840 
Q 4756 3084 4391 3084 
Q 3944 3084 3684 2787 
Q 3425 2491 3425 1978 
L 3425 0 
L 2847 0 
L 2847 2094 
Q 2847 2600 2669 2842 
Q 2491 3084 2119 3084 
Q 1678 3084 1418 2786 
Q 1159 2488 1159 1978 
L 1159 0 
L 581 0 
L 581 3500 
L 1159 3500 
L 1159 2956 
Q 1356 3278 1631 3431 
Q 1906 3584 2284 3584 
Q 2666 3584 2933 3390 
Q 3200 3197 3328 2828 
z
" transform="scale(0.015625)"/>
       <path id="DejaVuSans-20" transform="scale(0.015625)"/>
       <path id="DejaVuSans-69" d="M 603 3500 
L 1178 3500 
L 1178 0 
L 603 0 
L 603 3500 
z
M 603 4863 
L 1178 4863 
L 1178 4134 
L 603 4134 
L 603 4863 
z
" transform="scale(0.015625)"/>
       <path id="DejaVuSans-6e" d="M 3513 2113 
L 3513 0 
L 2938 0 
L 2938 2094 
Q 2938 2591 2744 2837 
Q 2550 3084 2163 3084 
Q 1697 3084 1428 2787 
Q 1159 2491 1159 1978 
L 1159 0 
L 581 0 
L 581 3500 
L 1159 3500 
L 1159 2956 
Q 1366 3272 1645 3428 
Q 1925 3584 2291 3584 
Q 2894 3584 3203 3211 
Q 3513 2838 3513 2113 
z
" transform="scale(0.015625)"/>
       <path id="DejaVuSans-74" d="M 1172 4494 
L 1172 3500 
L 2356 3500 
L 2356 3053 
L 1172 3053 
L 1172 1153 
Q 1172 725 1289 603 
Q 1406 481 1766 481 
L 2356 481 
L 2356 0 
L 1766 0 
Q 1100 0 847 248 
Q 594 497 594 1153 
L 594 3053 
L 172 3053 
L 172 3500 
L 594 3500 
L 594 4494 
L 1172 4494 
z
" transform="scale(0.015625)"/>
       <path id="DejaVuSans-65" d="M 3597 1894 
L 3597 1613 
L 953 1613 
Q 991 1019 1311 708 
Q 1631 397 2203 397 
Q 2534 397 2845 478 
Q 3156 559 3463 722 
L 3463 178 
Q 3153 47 2828 -22 
Q 2503 -91 2169 -91 
Q 1331 -91 842 396 
Q 353 884 353 1716 
Q 353 2575 817 3079 
Q 1281 3584 2069 3584 
Q 2775 3584 3186 3129 
Q 3597 2675 3597 1894 
z
M 3022 2063 
Q 3016 2534 2758 2815 
Q 2500 3097 2075 3097 
Q 1594 3097 1305 2825 
Q 1016 2553 972 2059 
L 3022 2063 
z
" transform="scale(0.015625)"/>
       <path id="DejaVuSans-73" d="M 2834 3397 
L 2834 2853 
Q 2591 2978 2328 3040 
Q 2066 3103 1784 3103 
Q 1356 3103 1142 2972 
Q 928 2841 928 2578 
Q 928 2378 1081 2264 
Q 1234 2150 1697 2047 
L 1894 2003 
Q 2506 1872 2764 1633 
Q 3022 1394 3022 966 
Q 3022 478 2636 193 
Q 2250 -91 1575 -91 
Q 1294 -91 989 -36 
Q 684 19 347 128 
L 347 722 
Q 666 556 975 473 
Q 1284 391 1588 391 
Q 1994 391 2212 530 
Q 2431 669 2431 922 
Q 2431 1156 2273 1281 
Q 2116 1406 1581 1522 
L 1381 1569 
Q 847 1681 609 1914 
Q 372 2147 372 2553 
Q 372 3047 722 3315 
Q 1072 3584 1716 3584 
Q 2034 3584 2315 3537 
Q 2597 3491 2834 3397 
z
" transform="scale(0.015625)"/>
       <path id="DejaVuSans-79" d="M 2059 -325 
Q 1816 -950 1584 -1140 
Q 1353 -1331 966 -1331 
L 506 -1331 
L 506 -850 
L 844 -850 
Q 1081 -850 1212 -737 
Q 1344 -625 1503 -206 
L 1606 56 
L 191 3500 
L 800 3500 
L 1894 763 
L 2988 3500 
L 3597 3500 
L 2059 -325 
z
" transform="scale(0.015625)"/>
      </defs>
      <use xlink:href="#DejaVuSans-4e"/>
      <use xlink:href="#DejaVuSans-6f" x="74.804688"/>
      <use xlink:href="#DejaVuSans-72" x="135.986328"/>
      <use xlink:href="#DejaVuSans-6d" x="175.349609"/>
      <use xlink:href="#DejaVuSans-2e" x="272.761719"/>
      <use xlink:href="#DejaVuSans-20" x="304.548828"/>
      <use xlink:href="#DejaVuSans-69" x="336.335938"/>
      <use xlink:href="#DejaVuSans-6e" x="364.119141"/>
      <use xlink:href="#DejaVuSans-74" x="427.498047"/>
      <use xlink:href="#DejaVuSans-65" x="466.707031"/>
      <use xlink:href="#DejaVuSans-6e" x="528.230469"/>
      <use xlink:href="#DejaVuSans-73" x="591.609375"/>
      <use xlink:href="#DejaVuSans-69" x="643.708984"/>
      <use xlink:href="#DejaVuSans-74" x="671.492188"/>
      <use xlink:href="#DejaVuSans-79" x="710.701172"/>
     </g>
    </g>
   </g>
   <g id="line2d_27">
    <path d="M 518.4 198.977601 
L 515.62895 199.004394 
L 511.92276 198.929372 
L 504.47142 198.93741 
L 501.663738 198.838274 
L 499.787895 198.846312 
L 493.196748 198.81684 
L 490.359748 198.790046 
L 484.663872 198.741818 
L 482.758775 198.709665 
L 479.894981 198.688231 
L 453.791409 198.15236 
L 447.910046 197.932653 
L 446.92695 197.967484 
L 443.972872 197.814761 
L 441.011415 197.680793 
L 438.04258 197.498597 
L 435.066497 197.345874 
L 429.092196 196.855552 
L 426.093979 196.617089 
L 419.069661 195.751658 
L 417.055317 195.505157 
L 413.01692 194.819242 
L 402.863456 192.482845 
L 401.843599 192.113094 
L 399.801425 191.502201 
L 394.681622 189.559669 
L 388.510766 186.36052 
L 386.44717 184.900272 
L 384.380402 183.437344 
L 383.345724 182.550478 
L 382.310269 181.829731 
L 380.236836 180.015808 
L 379.198857 178.952104 
L 376.080131 176.22988 
L 375.038851 174.884844 
L 373.996795 173.802385 
L 369.820285 168.770557 
L 367.727047 165.783076 
L 364.581009 161.150472 
L 362.479552 157.160913 
L 361.427528 155.695306 
L 359.321087 151.960286 
L 358.266605 149.331839 
L 357.211346 147.617052 
L 354.040455 140.717714 
L 352.981895 138.611741 
L 347.676411 125.66242 
L 346.612803 123.103637 
L 345.548418 120.0197 
L 344.483127 117.852102 
L 343.41706 114.947681 
L 342.350151 112.648795 
L 341.282401 109.840831 
L 340.21381 107.448168 
L 339.144441 104.374948 
L 338.074167 102.440454 
L 335.931224 97.748904 
L 334.858491 94.721233 
L 333.784916 92.572391 
L 332.710564 89.83677 
L 331.635307 88.389918 
L 330.559272 85.967782 
L 329.482332 84.625425 
L 328.404615 82.128267 
L 327.326057 81.064563 
L 326.246657 78.768356 
L 325.166416 78.519176 
L 324.085333 76.410524 
L 323.003474 75.178021 
L 321.920709 73.699017 
L 320.837167 73.500745 
L 318.667495 71.852942 
L 317.581429 70.628477 
L 316.494522 70.912488 
L 315.406773 69.610322 
L 314.318183 70.213177 
L 313.228752 69.639795 
L 312.138479 70.108682 
L 311.04743 69.12 
L 309.955474 70.138155 
L 308.862678 70.320351 
L 307.769104 71.207217 
L 306.674625 70.98751 
L 305.579369 72.289677 
L 304.483271 72.286997 
L 303.386268 73.471272 
L 302.288487 73.637392 
L 301.189866 75.504902 
L 300.090403 74.875254 
L 298.990034 76.914243 
L 297.888888 76.815106 
L 296.786901 79.719527 
L 295.684073 79.384608 
L 294.580403 80.930595 
L 293.475892 81.126188 
L 292.37054 83.668896 
L 291.264346 83.494738 
L 290.157311 85.399759 
L 289.049434 85.815059 
L 287.940717 87.457503 
L 286.831157 87.267269 
L 285.720757 89.335731 
L 284.609515 89.783183 
L 283.497431 91.733753 
L 282.384507 91.278263 
L 281.270741 93.285099 
L 280.156133 93.298496 
L 279.040685 95.642931 
L 277.924394 95.734029 
L 276.807263 97.657806 
L 275.68929 97.976649 
L 274.570476 100.476487 
L 273.450756 100.642607 
L 272.330259 102.614612 
L 271.208921 102.12429 
L 270.086676 104.385665 
L 268.963655 104.932254 
L 267.839793 107.279368 
L 266.715024 106.767612 
L 265.589479 109.425531 
L 264.463028 109.706864 
L 263.335736 112.236174 
L 262.207667 111.941445 
L 261.078691 114.813714 
L 259.948875 114.939643 
L 258.818217 117.334986 
L 257.686718 117.40197 
L 256.554377 120.603799 
L 255.421195 120.737767 
L 254.287172 123.344779 
L 253.152242 123.768117 
L 252.016536 126.651102 
L 250.879988 126.474265 
L 249.742535 128.807983 
L 248.60424 129.284908 
L 247.465104 132.074116 
L 246.325191 132.299182 
L 245.184372 135.208961 
L 244.042712 135.559956 
L 242.900145 137.987452 
L 241.756802 138.153572 
L 240.612618 140.926704 
L 239.467527 141.020481 
L 238.321595 143.726629 
L 237.174887 143.673042 
L 236.027272 146.748941 
L 234.878816 147.134768 
L 233.729519 149.602454 
L 232.579316 149.698911 
L 231.428336 152.330037 
L 230.27645 152.729261 
L 229.123787 155.215702 
L 227.970218 155.585453 
L 226.815808 158.029024 
L 225.660556 158.246052 
L 224.504399 160.740531 
L 223.347464 160.954879 
L 222.189624 163.135874 
L 221.031007 163.304673 
L 219.871484 165.64375 
L 218.71112 165.831305 
L 217.549914 168.103398 
L 216.387802 168.210572 
L 215.224914 170.241523 
L 214.061119 170.3353 
L 212.896483 172.218886 
L 211.731006 172.275153 
L 210.564687 174.056924 
L 209.397527 173.805064 
L 208.229461 175.645781 
L 207.060618 175.557362 
L 205.89087 177.079236 
L 204.720279 176.714843 
L 203.548783 178.169733 
L 202.37651 177.68209 
L 201.203331 179.091431 
L 200.029376 178.574315 
L 198.854514 179.782704 
L 197.678746 179.161094 
L 196.502202 180.452543 
L 195.324816 179.745193 
L 194.146524 180.731196 
L 192.967391 179.702324 
L 191.787416 180.62938 
L 190.606536 179.576394 
L 189.424879 180.436467 
L 188.242315 179.099469 
L 187.05891 179.84165 
L 185.874664 178.207244 
L 184.689577 178.831533 
L 183.503583 176.808621 
L 182.316749 177.156937 
L 181.129072 174.603512 
L 179.940555 174.970583 
L 178.751196 172.151902 
L 177.560931 172.339457 
L 176.369824 168.601758 
L 175.177877 168.75716 
L 173.985087 164.617557 
L 172.791457 164.826547 
L 171.59692 159.700941 
L 170.401542 160.169829 
L 169.205323 154.778967 
L 168.008263 155.987356 
L 166.810296 150.355353 
L 165.611488 152.080857 
L 164.411903 146.175559 
L 163.211348 149.157681 
L 162.010015 144.069587 
L 160.807777 148.37263 
L 159.604698 143.898108 
L 158.400777 149.447051 
L 157.196014 146.272016 
L 155.990346 152.343434 
L 154.783901 149.36935 
L 153.57655 156.030226 
L 152.368293 154.160036 
L 151.159259 160.987032 
L 149.949319 159.87242 
L 148.738538 166.43416 
L 145.101081 170.849736 
L 143.886869 176.138782 
L 142.671817 175.675254 
L 141.455923 180.460581 
L 140.239187 180.350728 
L 139.021545 184.308134 
L 137.803063 184.061634 
L 136.583738 187.365278 
L 135.363508 187.172364 
L 134.142501 189.921382 
L 132.920588 189.739186 
L 131.697833 191.995203 
L 130.474237 191.845159 
L 129.249736 193.672479 
L 128.024392 193.527794 
L 126.798208 194.95589 
L 125.571182 194.730824 
L 124.343314 195.917778 
L 123.114541 195.78381 
L 121.884926 196.694791 
L 120.65447 196.566182 
L 119.423172 197.281569 
L 118.190969 197.190471 
L 116.957989 197.766533 
L 115.724102 197.659358 
L 114.489375 198.15236 
L 113.253741 197.98624 
L 112.017331 198.406898 
L 110.780014 198.350632 
L 109.541856 198.672154 
L 108.302857 198.56498 
L 107.062952 198.806122 
L 105.822205 198.747176 
L 104.580682 198.94009 
L 103.338253 198.891861 
L 102.094917 199.06602 
L 100.850805 198.988318 
L 99.605787 199.173194 
L 98.359928 199.071378 
L 97.113227 199.197308 
L 95.865684 199.175873 
L 94.617301 199.266971 
L 93.368011 199.213384 
L 92.11788 199.315199 
L 90.866908 199.280368 
L 89.615094 199.374145 
L 85.854475 199.358069 
L 82.08622 199.446488 
L 79.569778 199.43845 
L 75.788772 199.390221 
L 72 199.475961 
L 72 199.475961 
" clip-path="url(#pa40254eb80)" style="fill: none; stroke: #000000; stroke-width: 1.5; stroke-linecap: square"/>
   </g>
   <g id="line2d_28">
    <path d="M 518.4 199.329866 
L 507.271789 199.323231 
L 458.67013 199.039594 
L 451.834213 198.923486 
L 442.986539 198.810694 
L 438.04258 198.639849 
L 435.066497 198.581795 
L 418.062877 197.742495 
L 412.005217 197.24157 
L 404.900711 196.476912 
L 396.732015 195.093561 
L 390.570997 193.504532 
L 387.479389 192.544149 
L 385.414175 191.840862 
L 382.310269 190.467464 
L 376.080131 187.315945 
L 373.996795 185.920983 
L 369.820285 183.008317 
L 364.581009 178.556382 
L 362.479552 176.123078 
L 361.427528 175.235677 
L 359.321087 172.954973 
L 358.266605 171.394142 
L 357.211346 170.442051 
L 354.040455 166.335125 
L 352.981895 164.90699 
L 349.801103 159.882805 
L 348.739178 158.68357 
L 342.350151 148.432841 
L 341.282401 146.49051 
L 340.21381 144.901481 
L 339.144441 142.964127 
L 338.074167 141.754939 
L 337.003116 140.144347 
L 335.931224 138.780901 
L 334.858491 136.803737 
L 333.784916 135.337452 
L 332.710564 133.667147 
L 331.635307 132.509379 
L 330.559272 130.663252 
L 329.482332 129.596712 
L 328.404615 127.818592 
L 327.326057 127.083791 
L 326.246657 125.549499 
L 325.166416 124.819674 
L 324.085333 123.257184 
L 323.003474 122.465987 
L 321.920709 121.207038 
L 320.837167 120.717723 
L 319.752719 119.909939 
L 318.667495 119.345983 
L 317.581429 118.378965 
L 316.494522 118.60123 
L 315.406773 117.71217 
L 314.318183 117.78847 
L 313.228752 117.377114 
L 312.138479 117.252712 
L 311.04743 116.47976 
L 309.955474 116.884482 
L 308.862678 116.929266 
L 307.769104 117.436827 
L 306.674625 116.781643 
L 305.579369 117.42024 
L 304.483271 117.614307 
L 303.386268 118.0804 
L 302.288487 118.06713 
L 301.189866 119.304516 
L 300.090403 118.971119 
L 298.990034 119.991215 
L 297.888888 119.800466 
L 296.786901 121.48404 
L 295.684073 121.182158 
L 294.580403 121.975013 
L 293.475892 121.542094 
L 292.37054 122.975206 
L 291.264346 122.847486 
L 290.157311 123.899098 
L 289.049434 124.13795 
L 287.940717 125.201173 
L 286.831157 124.998812 
L 285.720757 126.489978 
L 284.609515 126.421972 
L 283.497431 127.586375 
L 282.384507 127.226438 
L 281.270741 128.63467 
L 280.156133 128.588226 
L 279.040685 129.755947 
L 277.924394 129.492214 
L 276.807263 130.81917 
L 275.68929 131.086219 
L 274.570476 132.733302 
L 273.450756 133.2193 
L 271.208921 137.480485 
L 270.086676 143.204638 
L 268.963655 147.960113 
L 267.839793 153.455366 
L 266.715024 156.978432 
L 265.589479 157.13435 
L 264.463028 153.121969 
L 263.335736 150.446495 
L 262.207667 145.835326 
L 261.078691 144.583012 
L 259.948875 143.10014 
L 258.818217 143.929487 
L 257.686718 143.742054 
L 256.554377 145.8685 
L 255.421195 146.162089 
L 254.287172 147.895424 
L 253.152242 148.172426 
L 252.016536 149.797946 
L 250.879988 149.52592 
L 249.742535 151.040308 
L 248.60424 151.217788 
L 247.465104 153.097088 
L 246.325191 153.107041 
L 245.184372 154.991317 
L 244.042712 155.087521 
L 242.900145 156.66328 
L 241.756802 156.668257 
L 240.612618 158.603952 
L 239.467527 158.565802 
L 238.321595 160.312407 
L 237.174887 160.113364 
L 236.027272 162.095503 
L 234.878816 162.331038 
L 233.729519 164.05608 
L 232.579316 163.936654 
L 231.428336 165.74463 
L 230.27645 165.983482 
L 229.123787 167.677008 
L 227.970218 167.806387 
L 226.815808 169.566261 
L 225.660556 169.698956 
L 224.504399 171.531813 
L 223.347464 171.573281 
L 222.189624 173.215388 
L 221.031007 173.311592 
L 219.871484 174.920525 
L 218.71112 175.06649 
L 217.549914 176.643908 
L 216.387802 176.665471 
L 215.224914 178.12678 
L 214.061119 178.133415 
L 212.896483 179.520083 
L 211.731006 179.447101 
L 210.564687 180.740882 
L 209.397527 180.551791 
L 208.229461 181.878746 
L 207.060618 181.819033 
L 205.89087 182.888891 
L 204.720279 182.5472 
L 203.548783 183.617058 
L 202.37651 183.218971 
L 201.203331 184.22414 
L 200.029376 183.77961 
L 198.854514 184.652083 
L 197.678746 184.14784 
L 196.502202 185.013678 
L 195.324816 184.365129 
L 194.146524 185.030265 
L 192.967391 184.182672 
L 191.787416 184.824587 
L 190.606536 183.937185 
L 189.424879 184.521046 
L 188.242315 183.291954 
L 187.05891 183.782927 
L 185.874664 182.343181 
L 184.689577 182.711411 
L 183.503583 180.924997 
L 182.316749 181.059351 
L 181.129072 178.735521 
L 179.940555 178.798552 
L 178.751196 176.118102 
L 177.560931 176.10815 
L 176.369824 172.613282 
L 175.177877 172.429167 
L 173.985087 168.421762 
L 172.791457 168.240964 
L 171.59692 163.240002 
L 170.401542 163.241661 
L 169.205323 157.777923 
L 168.008263 158.514383 
L 166.810296 152.710613 
L 165.611488 154.050837 
L 164.411903 147.9004 
L 163.211348 150.159541 
L 162.010015 144.606234 
L 160.807777 148.417913 
L 159.604698 143.564574 
L 158.400777 148.719795 
L 157.196014 145.022566 
L 155.990346 151.176321 
L 154.783901 147.749459 
L 153.57655 154.448924 
L 152.368293 152.194759 
L 151.159259 159.224304 
L 149.949319 157.917253 
L 148.738538 164.752731 
L 145.101081 169.280966 
L 143.886869 174.917208 
L 142.671817 174.404671 
L 141.455923 179.420562 
L 140.239187 179.24474 
L 139.021545 183.416356 
L 137.803063 183.228923 
L 136.583738 186.7636 
L 135.363508 186.519772 
L 134.142501 189.463954 
L 132.920588 189.321306 
L 131.697833 191.701532 
L 130.474237 191.558884 
L 129.249736 193.476335 
L 128.024392 193.371837 
L 126.798208 194.818218 
L 125.571182 194.670594 
L 124.343314 195.881441 
L 123.114541 195.78026 
L 121.884926 196.714105 
L 120.65447 196.601314 
L 119.423172 197.347726 
L 118.190969 197.243229 
L 116.957989 197.828748 
L 115.724102 197.747472 
L 114.489375 198.220199 
L 113.253741 198.095797 
L 112.017331 198.500519 
L 110.780014 198.427536 
L 109.541856 198.719466 
L 108.302857 198.666388 
L 107.062952 198.896946 
L 105.822205 198.833916 
L 104.580682 199.024666 
L 103.338253 198.98154 
L 102.094917 199.135798 
L 100.850805 199.097648 
L 99.605787 199.215416 
L 98.359928 199.177266 
L 97.113227 199.275129 
L 95.865684 199.245272 
L 94.617301 199.348111 
L 92.11788 199.366357 
L 88.362439 199.377968 
L 84.599296 199.455926 
L 80.828452 199.45095 
L 77.04997 199.505687 
L 74.526668 199.467537 
L 72 199.500711 
L 72 199.500711 
" clip-path="url(#pa40254eb80)" style="fill: none; stroke: #ff0000; stroke-width: 1.5; stroke-linecap: square"/>
   </g>
   <g id="line2d_29">
    <path d="M 518.4 199.553789 
L 510.994223 199.568718 
L 501.663738 199.538861 
L 496.967981 199.5654 
L 485.615256 199.555448 
L 479.894981 199.560424 
L 449.87378 199.562083 
L 441.999365 199.560424 
L 436.059301 199.560424 
L 379.198857 199.567059 
L 376.080131 199.552131 
L 358.266605 199.547154 
L 312.138479 199.518957 
L 303.386268 199.499052 
L 297.888888 199.522274 
L 286.831157 199.515639 
L 281.270741 199.530568 
L 275.68929 199.45095 
L 274.570476 199.394555 
L 273.450756 199.207122 
L 272.330259 198.805718 
L 271.208921 197.956467 
L 266.715024 191.238756 
L 265.589479 191.895599 
L 263.335736 195.239526 
L 262.207667 197.006035 
L 261.078691 198.266643 
L 259.948875 198.890312 
L 258.818217 199.250248 
L 256.554377 199.490759 
L 249.742535 199.523933 
L 239.467527 199.533885 
L 224.504399 199.563741 
L 214.061119 199.538861 
L 191.787416 199.54052 
L 181.129072 199.552131 
L 143.886869 199.550472 
L 123.114541 199.558765 
L 112.017331 199.555448 
L 103.338253 199.567059 
L 74.526668 199.553789 
L 72 199.558765 
L 72 199.558765 
" clip-path="url(#pa40254eb80)" style="fill: none; stroke: #1f77b4; stroke-width: 1.5; stroke-linecap: square"/>
   </g>
   <g id="patch_3">
    <path d="M 72 199.567059 
L 72 69.12 
" style="fill: none; stroke: #000000; stroke-width: 0.8; stroke-linejoin: miter; stroke-linecap: square"/>
   </g>
   <g id="patch_4">
    <path d="M 518.4 199.567059 
L 518.4 69.12 
" style="fill: none; stroke: #000000; stroke-width: 0.8; stroke-linejoin: miter; stroke-linecap: square"/>
   </g>
   <g id="patch_5">
    <path d="M 72 199.567059 
L 518.4 199.567059 
" style="fill: none; stroke: #000000; stroke-width: 0.8; stroke-linejoin: miter; stroke-linecap: square"/>
   </g>
   <g id="patch_6">
    <path d="M 72 69.12 
L 518.4 69.12 
" style="fill: none; stroke: #000000; stroke-width: 0.8; stroke-linejoin: miter; stroke-linecap: square"/>
   </g>
   <g id="legend_1">
    <g id="patch_7">
     <path d="M 350.676562 121.154375 
L 511.4 121.154375 
Q 513.4 121.154375 513.4 119.154375 
L 513.4 76.12 
Q 513.4 74.12 511.4 74.12 
L 350.676562 74.12 
Q 348.676562 74.12 348.676562 76.12 
L 348.676562 119.154375 
Q 348.676562 121.154375 350.676562 121.154375 
z
" style="fill: #ffffff; opacity: 0.8; stroke: #cccccc; stroke-linejoin: miter"/>
    </g>
    <g id="line2d_30">
     <path d="M 352.676562 82.218437 
L 362.676562 82.218437 
L 372.676562 82.218437 
" style="fill: none; stroke: #000000; stroke-width: 1.5; stroke-linecap: square"/>
    </g>
    <g id="text_15">
     <!-- Transmission without FBG -->
     <g transform="translate(380.676562 85.718437) scale(0.1 -0.1)">
      <defs>
       <path id="DejaVuSans-54" d="M -19 4666 
L 3928 4666 
L 3928 4134 
L 2272 4134 
L 2272 0 
L 1638 0 
L 1638 4134 
L -19 4134 
L -19 4666 
z
" transform="scale(0.015625)"/>
       <path id="DejaVuSans-61" d="M 2194 1759 
Q 1497 1759 1228 1600 
Q 959 1441 959 1056 
Q 959 750 1161 570 
Q 1363 391 1709 391 
Q 2188 391 2477 730 
Q 2766 1069 2766 1631 
L 2766 1759 
L 2194 1759 
z
M 3341 1997 
L 3341 0 
L 2766 0 
L 2766 531 
Q 2569 213 2275 61 
Q 1981 -91 1556 -91 
Q 1019 -91 701 211 
Q 384 513 384 1019 
Q 384 1609 779 1909 
Q 1175 2209 1959 2209 
L 2766 2209 
L 2766 2266 
Q 2766 2663 2505 2880 
Q 2244 3097 1772 3097 
Q 1472 3097 1187 3025 
Q 903 2953 641 2809 
L 641 3341 
Q 956 3463 1253 3523 
Q 1550 3584 1831 3584 
Q 2591 3584 2966 3190 
Q 3341 2797 3341 1997 
z
" transform="scale(0.015625)"/>
       <path id="DejaVuSans-77" d="M 269 3500 
L 844 3500 
L 1563 769 
L 2278 3500 
L 2956 3500 
L 3675 769 
L 4391 3500 
L 4966 3500 
L 4050 0 
L 3372 0 
L 2619 2869 
L 1863 0 
L 1184 0 
L 269 3500 
z
" transform="scale(0.015625)"/>
       <path id="DejaVuSans-68" d="M 3513 2113 
L 3513 0 
L 2938 0 
L 2938 2094 
Q 2938 2591 2744 2837 
Q 2550 3084 2163 3084 
Q 1697 3084 1428 2787 
Q 1159 2491 1159 1978 
L 1159 0 
L 581 0 
L 581 4863 
L 1159 4863 
L 1159 2956 
Q 1366 3272 1645 3428 
Q 1925 3584 2291 3584 
Q 2894 3584 3203 3211 
Q 3513 2838 3513 2113 
z
" transform="scale(0.015625)"/>
       <path id="DejaVuSans-75" d="M 544 1381 
L 544 3500 
L 1119 3500 
L 1119 1403 
Q 1119 906 1312 657 
Q 1506 409 1894 409 
Q 2359 409 2629 706 
Q 2900 1003 2900 1516 
L 2900 3500 
L 3475 3500 
L 3475 0 
L 2900 0 
L 2900 538 
Q 2691 219 2414 64 
Q 2138 -91 1772 -91 
Q 1169 -91 856 284 
Q 544 659 544 1381 
z
M 1991 3584 
L 1991 3584 
z
" transform="scale(0.015625)"/>
       <path id="DejaVuSans-46" d="M 628 4666 
L 3309 4666 
L 3309 4134 
L 1259 4134 
L 1259 2759 
L 3109 2759 
L 3109 2228 
L 1259 2228 
L 1259 0 
L 628 0 
L 628 4666 
z
" transform="scale(0.015625)"/>
       <path id="DejaVuSans-42" d="M 1259 2228 
L 1259 519 
L 2272 519 
Q 2781 519 3026 730 
Q 3272 941 3272 1375 
Q 3272 1813 3026 2020 
Q 2781 2228 2272 2228 
L 1259 2228 
z
M 1259 4147 
L 1259 2741 
L 2194 2741 
Q 2656 2741 2882 2914 
Q 3109 3088 3109 3444 
Q 3109 3797 2882 3972 
Q 2656 4147 2194 4147 
L 1259 4147 
z
M 628 4666 
L 2241 4666 
Q 2963 4666 3353 4366 
Q 3744 4066 3744 3513 
Q 3744 3084 3544 2831 
Q 3344 2578 2956 2516 
Q 3422 2416 3680 2098 
Q 3938 1781 3938 1306 
Q 3938 681 3513 340 
Q 3088 0 2303 0 
L 628 0 
L 628 4666 
z
" transform="scale(0.015625)"/>
       <path id="DejaVuSans-47" d="M 3809 666 
L 3809 1919 
L 2778 1919 
L 2778 2438 
L 4434 2438 
L 4434 434 
Q 4069 175 3628 42 
Q 3188 -91 2688 -91 
Q 1594 -91 976 548 
Q 359 1188 359 2328 
Q 359 3472 976 4111 
Q 1594 4750 2688 4750 
Q 3144 4750 3555 4637 
Q 3966 4525 4313 4306 
L 4313 3634 
Q 3963 3931 3569 4081 
Q 3175 4231 2741 4231 
Q 1884 4231 1454 3753 
Q 1025 3275 1025 2328 
Q 1025 1384 1454 906 
Q 1884 428 2741 428 
Q 3075 428 3337 486 
Q 3600 544 3809 666 
z
" transform="scale(0.015625)"/>
      </defs>
      <use xlink:href="#DejaVuSans-54"/>
      <use xlink:href="#DejaVuSans-72" x="46.333984"/>
      <use xlink:href="#DejaVuSans-61" x="87.447266"/>
      <use xlink:href="#DejaVuSans-6e" x="148.726562"/>
      <use xlink:href="#DejaVuSans-73" x="212.105469"/>
      <use xlink:href="#DejaVuSans-6d" x="264.205078"/>
      <use xlink:href="#DejaVuSans-69" x="361.617188"/>
      <use xlink:href="#DejaVuSans-73" x="389.400391"/>
      <use xlink:href="#DejaVuSans-73" x="441.5"/>
      <use xlink:href="#DejaVuSans-69" x="493.599609"/>
      <use xlink:href="#DejaVuSans-6f" x="521.382812"/>
      <use xlink:href="#DejaVuSans-6e" x="582.564453"/>
      <use xlink:href="#DejaVuSans-20" x="645.943359"/>
      <use xlink:href="#DejaVuSans-77" x="677.730469"/>
      <use xlink:href="#DejaVuSans-69" x="759.517578"/>
      <use xlink:href="#DejaVuSans-74" x="787.300781"/>
      <use xlink:href="#DejaVuSans-68" x="826.509766"/>
      <use xlink:href="#DejaVuSans-6f" x="889.888672"/>
      <use xlink:href="#DejaVuSans-75" x="951.070312"/>
      <use xlink:href="#DejaVuSans-74" x="1014.449219"/>
      <use xlink:href="#DejaVuSans-20" x="1053.658203"/>
      <use xlink:href="#DejaVuSans-46" x="1085.445312"/>
      <use xlink:href="#DejaVuSans-42" x="1142.964844"/>
      <use xlink:href="#DejaVuSans-47" x="1209.818359"/>
     </g>
    </g>
    <g id="line2d_31">
     <path d="M 352.676562 96.896563 
L 362.676562 96.896563 
L 372.676562 96.896563 
" style="fill: none; stroke: #ff0000; stroke-width: 1.5; stroke-linecap: square"/>
    </g>
    <g id="text_16">
     <!-- Transmission with FBG -->
     <g transform="translate(380.676562 100.396563) scale(0.1 -0.1)">
      <use xlink:href="#DejaVuSans-54"/>
      <use xlink:href="#DejaVuSans-72" x="46.333984"/>
      <use xlink:href="#DejaVuSans-61" x="87.447266"/>
      <use xlink:href="#DejaVuSans-6e" x="148.726562"/>
      <use xlink:href="#DejaVuSans-73" x="212.105469"/>
      <use xlink:href="#DejaVuSans-6d" x="264.205078"/>
      <use xlink:href="#DejaVuSans-69" x="361.617188"/>
      <use xlink:href="#DejaVuSans-73" x="389.400391"/>
      <use xlink:href="#DejaVuSans-73" x="441.5"/>
      <use xlink:href="#DejaVuSans-69" x="493.599609"/>
      <use xlink:href="#DejaVuSans-6f" x="521.382812"/>
      <use xlink:href="#DejaVuSans-6e" x="582.564453"/>
      <use xlink:href="#DejaVuSans-20" x="645.943359"/>
      <use xlink:href="#DejaVuSans-77" x="677.730469"/>
      <use xlink:href="#DejaVuSans-69" x="759.517578"/>
      <use xlink:href="#DejaVuSans-74" x="787.300781"/>
      <use xlink:href="#DejaVuSans-68" x="826.509766"/>
      <use xlink:href="#DejaVuSans-20" x="889.888672"/>
      <use xlink:href="#DejaVuSans-46" x="921.675781"/>
      <use xlink:href="#DejaVuSans-42" x="979.195312"/>
      <use xlink:href="#DejaVuSans-47" x="1046.048828"/>
     </g>
    </g>
    <g id="line2d_32">
     <path d="M 352.676562 111.574687 
L 362.676562 111.574687 
L 372.676562 111.574687 
" style="fill: none; stroke: #1f77b4; stroke-width: 1.5; stroke-linecap: square"/>
    </g>
    <g id="text_17">
     <!-- Reflection with FBG -->
     <g transform="translate(380.676562 115.074687) scale(0.1 -0.1)">
      <defs>
       <path id="DejaVuSans-52" d="M 2841 2188 
Q 3044 2119 3236 1894 
Q 3428 1669 3622 1275 
L 4263 0 
L 3584 0 
L 2988 1197 
Q 2756 1666 2539 1819 
Q 2322 1972 1947 1972 
L 1259 1972 
L 1259 0 
L 628 0 
L 628 4666 
L 2053 4666 
Q 2853 4666 3247 4331 
Q 3641 3997 3641 3322 
Q 3641 2881 3436 2590 
Q 3231 2300 2841 2188 
z
M 1259 4147 
L 1259 2491 
L 2053 2491 
Q 2509 2491 2742 2702 
Q 2975 2913 2975 3322 
Q 2975 3731 2742 3939 
Q 2509 4147 2053 4147 
L 1259 4147 
z
" transform="scale(0.015625)"/>
       <path id="DejaVuSans-66" d="M 2375 4863 
L 2375 4384 
L 1825 4384 
Q 1516 4384 1395 4259 
Q 1275 4134 1275 3809 
L 1275 3500 
L 2222 3500 
L 2222 3053 
L 1275 3053 
L 1275 0 
L 697 0 
L 697 3053 
L 147 3053 
L 147 3500 
L 697 3500 
L 697 3744 
Q 697 4328 969 4595 
Q 1241 4863 1831 4863 
L 2375 4863 
z
" transform="scale(0.015625)"/>
       <path id="DejaVuSans-6c" d="M 603 4863 
L 1178 4863 
L 1178 0 
L 603 0 
L 603 4863 
z
" transform="scale(0.015625)"/>
       <path id="DejaVuSans-63" d="M 3122 3366 
L 3122 2828 
Q 2878 2963 2633 3030 
Q 2388 3097 2138 3097 
Q 1578 3097 1268 2742 
Q 959 2388 959 1747 
Q 959 1106 1268 751 
Q 1578 397 2138 397 
Q 2388 397 2633 464 
Q 2878 531 3122 666 
L 3122 134 
Q 2881 22 2623 -34 
Q 2366 -91 2075 -91 
Q 1284 -91 818 406 
Q 353 903 353 1747 
Q 353 2603 823 3093 
Q 1294 3584 2113 3584 
Q 2378 3584 2631 3529 
Q 2884 3475 3122 3366 
z
" transform="scale(0.015625)"/>
      </defs>
      <use xlink:href="#DejaVuSans-52"/>
      <use xlink:href="#DejaVuSans-65" x="64.982422"/>
      <use xlink:href="#DejaVuSans-66" x="126.505859"/>
      <use xlink:href="#DejaVuSans-6c" x="161.710938"/>
      <use xlink:href="#DejaVuSans-65" x="189.494141"/>
      <use xlink:href="#DejaVuSans-63" x="251.017578"/>
      <use xlink:href="#DejaVuSans-74" x="305.998047"/>
      <use xlink:href="#DejaVuSans-69" x="345.207031"/>
      <use xlink:href="#DejaVuSans-6f" x="372.990234"/>
      <use xlink:href="#DejaVuSans-6e" x="434.171875"/>
      <use xlink:href="#DejaVuSans-20" x="497.550781"/>
      <use xlink:href="#DejaVuSans-77" x="529.337891"/>
      <use xlink:href="#DejaVuSans-69" x="611.125"/>
      <use xlink:href="#DejaVuSans-74" x="638.908203"/>
      <use xlink:href="#DejaVuSans-68" x="678.117188"/>
      <use xlink:href="#DejaVuSans-20" x="741.496094"/>
      <use xlink:href="#DejaVuSans-46" x="773.283203"/>
      <use xlink:href="#DejaVuSans-42" x="830.802734"/>
      <use xlink:href="#DejaVuSans-47" x="897.65625"/>
     </g>
    </g>
   </g>
  </g>
  <g id="axes_2">
   <g id="patch_8">
    <path d="M 72 356.103529 
L 518.4 356.103529 
L 518.4 225.656471 
L 72 225.656471 
z
" style="fill: #ffffff"/>
   </g>
   <g id="matplotlib.axis_3">
    <g id="xtick_8">
     <g id="line2d_33">
      <path d="M 74.496832 356.103529 
L 74.496832 225.656471 
" clip-path="url(#p954ccec4f2)" style="fill: none; stroke: #b0b0b0; stroke-width: 0.8; stroke-linecap: square"/>
     </g>
     <g id="line2d_34">
      <g>
       <use xlink:href="#m9c846dcfd2" x="74.496832" y="356.103529" style="stroke: #000000; stroke-width: 0.8"/>
      </g>
     </g>
     <g id="text_18">
      <!-- 1520 -->
      <g transform="translate(61.771832 370.701967) scale(0.1 -0.1)">
       <use xlink:href="#DejaVuSans-31"/>
       <use xlink:href="#DejaVuSans-35" x="63.623047"/>
       <use xlink:href="#DejaVuSans-32" x="127.246094"/>
       <use xlink:href="#DejaVuSans-30" x="190.869141"/>
      </g>
     </g>
    </g>
    <g id="xtick_9">
     <g id="line2d_35">
      <path d="M 139.216806 356.103529 
L 139.216806 225.656471 
" clip-path="url(#p954ccec4f2)" style="fill: none; stroke: #b0b0b0; stroke-width: 0.8; stroke-linecap: square"/>
     </g>
     <g id="line2d_36">
      <g>
       <use xlink:href="#m9c846dcfd2" x="139.216806" y="356.103529" style="stroke: #000000; stroke-width: 0.8"/>
      </g>
     </g>
     <g id="text_19">
      <!-- 1530 -->
      <g transform="translate(126.491806 370.701967) scale(0.1 -0.1)">
       <use xlink:href="#DejaVuSans-31"/>
       <use xlink:href="#DejaVuSans-35" x="63.623047"/>
       <use xlink:href="#DejaVuSans-33" x="127.246094"/>
       <use xlink:href="#DejaVuSans-30" x="190.869141"/>
      </g>
     </g>
    </g>
    <g id="xtick_10">
     <g id="line2d_37">
      <path d="M 203.936779 356.103529 
L 203.936779 225.656471 
" clip-path="url(#p954ccec4f2)" style="fill: none; stroke: #b0b0b0; stroke-width: 0.8; stroke-linecap: square"/>
     </g>
     <g id="line2d_38">
      <g>
       <use xlink:href="#m9c846dcfd2" x="203.936779" y="356.103529" style="stroke: #000000; stroke-width: 0.8"/>
      </g>
     </g>
     <g id="text_20">
      <!-- 1540 -->
      <g transform="translate(191.211779 370.701967) scale(0.1 -0.1)">
       <use xlink:href="#DejaVuSans-31"/>
       <use xlink:href="#DejaVuSans-35" x="63.623047"/>
       <use xlink:href="#DejaVuSans-34" x="127.246094"/>
       <use xlink:href="#DejaVuSans-30" x="190.869141"/>
      </g>
     </g>
    </g>
    <g id="xtick_11">
     <g id="line2d_39">
      <path d="M 268.656753 356.103529 
L 268.656753 225.656471 
" clip-path="url(#p954ccec4f2)" style="fill: none; stroke: #b0b0b0; stroke-width: 0.8; stroke-linecap: square"/>
     </g>
     <g id="line2d_40">
      <g>
       <use xlink:href="#m9c846dcfd2" x="268.656753" y="356.103529" style="stroke: #000000; stroke-width: 0.8"/>
      </g>
     </g>
     <g id="text_21">
      <!-- 1550 -->
      <g transform="translate(255.931753 370.701967) scale(0.1 -0.1)">
       <use xlink:href="#DejaVuSans-31"/>
       <use xlink:href="#DejaVuSans-35" x="63.623047"/>
       <use xlink:href="#DejaVuSans-35" x="127.246094"/>
       <use xlink:href="#DejaVuSans-30" x="190.869141"/>
      </g>
     </g>
    </g>
    <g id="xtick_12">
     <g id="line2d_41">
      <path d="M 333.376727 356.103529 
L 333.376727 225.656471 
" clip-path="url(#p954ccec4f2)" style="fill: none; stroke: #b0b0b0; stroke-width: 0.8; stroke-linecap: square"/>
     </g>
     <g id="line2d_42">
      <g>
       <use xlink:href="#m9c846dcfd2" x="333.376727" y="356.103529" style="stroke: #000000; stroke-width: 0.8"/>
      </g>
     </g>
     <g id="text_22">
      <!-- 1560 -->
      <g transform="translate(320.651727 370.701967) scale(0.1 -0.1)">
       <use xlink:href="#DejaVuSans-31"/>
       <use xlink:href="#DejaVuSans-35" x="63.623047"/>
       <use xlink:href="#DejaVuSans-36" x="127.246094"/>
       <use xlink:href="#DejaVuSans-30" x="190.869141"/>
      </g>
     </g>
    </g>
    <g id="xtick_13">
     <g id="line2d_43">
      <path d="M 398.096701 356.103529 
L 398.096701 225.656471 
" clip-path="url(#p954ccec4f2)" style="fill: none; stroke: #b0b0b0; stroke-width: 0.8; stroke-linecap: square"/>
     </g>
     <g id="line2d_44">
      <g>
       <use xlink:href="#m9c846dcfd2" x="398.096701" y="356.103529" style="stroke: #000000; stroke-width: 0.8"/>
      </g>
     </g>
     <g id="text_23">
      <!-- 1570 -->
      <g transform="translate(385.371701 370.701967) scale(0.1 -0.1)">
       <use xlink:href="#DejaVuSans-31"/>
       <use xlink:href="#DejaVuSans-35" x="63.623047"/>
       <use xlink:href="#DejaVuSans-37" x="127.246094"/>
       <use xlink:href="#DejaVuSans-30" x="190.869141"/>
      </g>
     </g>
    </g>
    <g id="xtick_14">
     <g id="line2d_45">
      <path d="M 462.816674 356.103529 
L 462.816674 225.656471 
" clip-path="url(#p954ccec4f2)" style="fill: none; stroke: #b0b0b0; stroke-width: 0.8; stroke-linecap: square"/>
     </g>
     <g id="line2d_46">
      <g>
       <use xlink:href="#m9c846dcfd2" x="462.816674" y="356.103529" style="stroke: #000000; stroke-width: 0.8"/>
      </g>
     </g>
     <g id="text_24">
      <!-- 1580 -->
      <g transform="translate(450.091674 370.701967) scale(0.1 -0.1)">
       <use xlink:href="#DejaVuSans-31"/>
       <use xlink:href="#DejaVuSans-35" x="63.623047"/>
       <use xlink:href="#DejaVuSans-38" x="127.246094"/>
       <use xlink:href="#DejaVuSans-30" x="190.869141"/>
      </g>
     </g>
    </g>
   </g>
   <g id="matplotlib.axis_4">
    <g id="ytick_7">
     <g id="line2d_47">
      <path d="M 72 356.103529 
L 518.4 356.103529 
" clip-path="url(#p954ccec4f2)" style="fill: none; stroke: #b0b0b0; stroke-width: 0.8; stroke-linecap: square"/>
     </g>
     <g id="line2d_48">
      <g>
       <use xlink:href="#m85090ad314" x="72" y="356.103529" style="stroke: #000000; stroke-width: 0.8"/>
      </g>
     </g>
     <g id="text_25">
      <!-- 0.0 -->
      <g transform="translate(49.096875 359.902748) scale(0.1 -0.1)">
       <use xlink:href="#DejaVuSans-30"/>
       <use xlink:href="#DejaVuSans-2e" x="63.623047"/>
       <use xlink:href="#DejaVuSans-30" x="95.410156"/>
      </g>
     </g>
    </g>
    <g id="ytick_8">
     <g id="line2d_49">
      <path d="M 72 330.014118 
L 518.4 330.014118 
" clip-path="url(#p954ccec4f2)" style="fill: none; stroke: #b0b0b0; stroke-width: 0.8; stroke-linecap: square"/>
     </g>
     <g id="line2d_50">
      <g>
       <use xlink:href="#m85090ad314" x="72" y="330.014118" style="stroke: #000000; stroke-width: 0.8"/>
      </g>
     </g>
     <g id="text_26">
      <!-- 0.2 -->
      <g transform="translate(49.096875 333.813336) scale(0.1 -0.1)">
       <use xlink:href="#DejaVuSans-30"/>
       <use xlink:href="#DejaVuSans-2e" x="63.623047"/>
       <use xlink:href="#DejaVuSans-32" x="95.410156"/>
      </g>
     </g>
    </g>
    <g id="ytick_9">
     <g id="line2d_51">
      <path d="M 72 303.924706 
L 518.4 303.924706 
" clip-path="url(#p954ccec4f2)" style="fill: none; stroke: #b0b0b0; stroke-width: 0.8; stroke-linecap: square"/>
     </g>
     <g id="line2d_52">
      <g>
       <use xlink:href="#m85090ad314" x="72" y="303.924706" style="stroke: #000000; stroke-width: 0.8"/>
      </g>
     </g>
     <g id="text_27">
      <!-- 0.4 -->
      <g transform="translate(49.096875 307.723925) scale(0.1 -0.1)">
       <use xlink:href="#DejaVuSans-30"/>
       <use xlink:href="#DejaVuSans-2e" x="63.623047"/>
       <use xlink:href="#DejaVuSans-34" x="95.410156"/>
      </g>
     </g>
    </g>
    <g id="ytick_10">
     <g id="line2d_53">
      <path d="M 72 277.835294 
L 518.4 277.835294 
" clip-path="url(#p954ccec4f2)" style="fill: none; stroke: #b0b0b0; stroke-width: 0.8; stroke-linecap: square"/>
     </g>
     <g id="line2d_54">
      <g>
       <use xlink:href="#m85090ad314" x="72" y="277.835294" style="stroke: #000000; stroke-width: 0.8"/>
      </g>
     </g>
     <g id="text_28">
      <!-- 0.6 -->
      <g transform="translate(49.096875 281.634513) scale(0.1 -0.1)">
       <use xlink:href="#DejaVuSans-30"/>
       <use xlink:href="#DejaVuSans-2e" x="63.623047"/>
       <use xlink:href="#DejaVuSans-36" x="95.410156"/>
      </g>
     </g>
    </g>
    <g id="ytick_11">
     <g id="line2d_55">
      <path d="M 72 251.745882 
L 518.4 251.745882 
" clip-path="url(#p954ccec4f2)" style="fill: none; stroke: #b0b0b0; stroke-width: 0.8; stroke-linecap: square"/>
     </g>
     <g id="line2d_56">
      <g>
       <use xlink:href="#m85090ad314" x="72" y="251.745882" style="stroke: #000000; stroke-width: 0.8"/>
      </g>
     </g>
     <g id="text_29">
      <!-- 0.8 -->
      <g transform="translate(49.096875 255.545101) scale(0.1 -0.1)">
       <use xlink:href="#DejaVuSans-30"/>
       <use xlink:href="#DejaVuSans-2e" x="63.623047"/>
       <use xlink:href="#DejaVuSans-38" x="95.410156"/>
      </g>
     </g>
    </g>
    <g id="ytick_12">
     <g id="line2d_57">
      <path d="M 72 225.656471 
L 518.4 225.656471 
" clip-path="url(#p954ccec4f2)" style="fill: none; stroke: #b0b0b0; stroke-width: 0.8; stroke-linecap: square"/>
     </g>
     <g id="line2d_58">
      <g>
       <use xlink:href="#m85090ad314" x="72" y="225.656471" style="stroke: #000000; stroke-width: 0.8"/>
      </g>
     </g>
     <g id="text_30">
      <!-- 1.0 -->
      <g transform="translate(49.096875 229.455689) scale(0.1 -0.1)">
       <use xlink:href="#DejaVuSans-31"/>
       <use xlink:href="#DejaVuSans-2e" x="63.623047"/>
       <use xlink:href="#DejaVuSans-30" x="95.410156"/>
      </g>
     </g>
    </g>
    <g id="text_31">
     <!-- Transmission -->
     <g transform="translate(42.185312 336.093437) rotate(-90) scale(0.14 -0.14)">
      <use xlink:href="#DejaVuSans-54"/>
      <use xlink:href="#DejaVuSans-72" x="46.333984"/>
      <use xlink:href="#DejaVuSans-61" x="87.447266"/>
      <use xlink:href="#DejaVuSans-6e" x="148.726562"/>
      <use xlink:href="#DejaVuSans-73" x="212.105469"/>
      <use xlink:href="#DejaVuSans-6d" x="264.205078"/>
      <use xlink:href="#DejaVuSans-69" x="361.617188"/>
      <use xlink:href="#DejaVuSans-73" x="389.400391"/>
      <use xlink:href="#DejaVuSans-73" x="441.5"/>
      <use xlink:href="#DejaVuSans-69" x="493.599609"/>
      <use xlink:href="#DejaVuSans-6f" x="521.382812"/>
      <use xlink:href="#DejaVuSans-6e" x="582.564453"/>
     </g>
    </g>
   </g>
   <g id="line2d_59">
    <path d="M 518.4 303.612666 
L 517.477093 303.287349 
L 516.55341 304.052801 
L 515.62895 302.651295 
L 514.703648 303.576933 
L 513.777505 304.910517 
L 512.850521 305.45445 
L 511.92276 303.850181 
L 510.994223 305.58859 
L 510.064844 304.490439 
L 509.134624 306.619507 
L 508.203627 304.835721 
L 507.271789 308.042757 
L 505.405718 304.473172 
L 504.47142 308.681342 
L 503.536346 306.142157 
L 502.600431 301.072785 
L 501.663738 303.553287 
L 500.726205 303.423396 
L 499.787895 305.669071 
L 498.848743 303.278716 
L 497.90875 302.059682 
L 496.967981 301.140882 
L 496.02637 302.951942 
L 495.083982 302.959499 
L 494.140753 305.383613 
L 493.196748 305.631545 
L 492.251901 303.185463 
L 491.306213 304.271307 
L 490.359748 302.359568 
L 489.412506 303.388346 
L 488.464423 306.201661 
L 487.515499 304.905804 
L 486.565798 305.402869 
L 485.615256 301.475029 
L 484.663872 301.829759 
L 483.711712 305.074186 
L 482.758775 302.098506 
L 481.804932 301.482715 
L 480.850377 301.941448 
L 479.894981 301.938473 
L 478.938743 302.186152 
L 477.981664 303.624647 
L 477.023809 303.346567 
L 476.065177 304.934335 
L 475.105703 305.075622 
L 474.145388 302.266746 
L 473.184296 300.512857 
L 472.222363 300.487018 
L 471.259654 302.762611 
L 470.296103 301.982647 
L 469.331775 301.991366 
L 468.366606 301.583538 
L 467.400596 302.135437 
L 466.433809 302.00154 
L 465.466181 300.981859 
L 463.528529 301.702025 
L 462.558506 303.046121 
L 461.587642 301.501015 
L 460.615936 301.211123 
L 459.643454 303.414652 
L 458.67013 300.638852 
L 457.69603 301.455951 
L 456.721088 300.336124 
L 455.74537 300.524968 
L 454.768746 302.161596 
L 453.791409 300.584347 
L 452.813232 299.648994 
L 451.834213 299.545753 
L 450.854417 298.58937 
L 449.87378 298.360756 
L 447.910046 298.780594 
L 445.943077 300.116715 
L 444.958363 300.205807 
L 443.972872 298.56238 
L 442.986539 300.139457 
L 441.999365 298.606789 
L 441.011415 298.290166 
L 440.022623 298.687367 
L 439.03299 298.701878 
L 438.04258 297.629251 
L 437.051394 298.67302 
L 436.059301 298.308159 
L 434.072787 298.221208 
L 433.078299 297.886804 
L 432.082971 298.098737 
L 431.086866 297.648947 
L 430.089919 297.357617 
L 429.092196 297.771481 
L 427.094226 297.051787 
L 424.091154 297.201337 
L 423.088448 296.610142 
L 422.084965 296.954458 
L 421.080705 296.180494 
L 420.075604 296.808998 
L 419.069661 296.44451 
L 418.062877 296.405483 
L 417.055317 295.377342 
L 415.037736 295.180369 
L 414.027716 294.792043 
L 412.005217 295.06916 
L 410.992738 294.835203 
L 409.979482 294.761818 
L 408.96532 294.826207 
L 407.950381 294.327508 
L 405.918045 294.088275 
L 404.900711 293.80668 
L 403.882472 293.808493 
L 402.863456 293.15481 
L 400.8229 293.038118 
L 399.801425 292.599377 
L 398.779108 292.715335 
L 397.75595 292.483433 
L 396.732015 292.624454 
L 394.681622 291.672359 
L 391.599851 290.765932 
L 390.570997 290.874764 
L 387.479389 290.627197 
L 386.44717 290.6762 
L 385.414175 290.593671 
L 383.345724 289.856567 
L 382.310269 289.181643 
L 381.273973 288.780462 
L 379.198857 288.835539 
L 378.160101 288.61283 
L 377.120504 288.037765 
L 376.080131 287.623883 
L 369.820285 285.964421 
L 368.774087 285.86276 
L 367.727047 285.473974 
L 365.630508 285.104013 
L 360.374729 283.494357 
L 358.266605 282.946207 
L 357.211346 282.970304 
L 356.155245 282.696617 
L 354.040455 282.440721 
L 352.981895 281.929458 
L 349.801103 281.222995 
L 348.739178 281.243491 
L 347.676411 280.937363 
L 346.612803 280.857862 
L 344.483127 280.201926 
L 343.41706 279.700369 
L 340.21381 278.693091 
L 337.003116 278.222297 
L 335.931224 278.225713 
L 333.784916 277.795297 
L 332.710564 277.7619 
L 328.404615 276.407747 
L 326.246657 276.174087 
L 325.166416 275.552128 
L 324.085333 275.276322 
L 323.003474 275.247465 
L 319.752719 274.178089 
L 318.667495 274.165811 
L 317.581429 273.965601 
L 316.494522 274.009639 
L 315.406773 273.939805 
L 314.318183 273.633825 
L 313.228752 273.58477 
L 312.138479 273.160542 
L 307.769104 272.637804 
L 306.674625 272.115724 
L 305.579369 271.910951 
L 304.483271 272.11162 
L 303.386268 271.804956 
L 302.288487 271.680008 
L 300.090403 271.787617 
L 298.990034 271.470864 
L 295.684073 271.023888 
L 294.580403 270.786977 
L 293.475892 270.169282 
L 292.37054 269.89697 
L 291.264346 269.88278 
L 290.157311 269.645648 
L 286.831157 269.485305 
L 285.720757 269.624573 
L 284.609515 269.1913 
L 282.384507 268.960432 
L 281.270741 269.043396 
L 280.156133 268.975411 
L 277.924394 268.067406 
L 274.570476 268.120719 
L 273.450756 268.613835 
L 272.330259 269.809199 
L 271.208921 272.987962 
L 266.715024 296.237213 
L 265.589479 294.697624 
L 262.207667 276.11383 
L 261.078691 271.475517 
L 259.948875 269.063845 
L 258.818217 267.844078 
L 257.686718 267.474554 
L 256.554377 267.393678 
L 255.421195 267.728751 
L 253.152242 267.655347 
L 252.016536 267.066305 
L 250.879988 266.796239 
L 249.742535 266.642611 
L 248.60424 266.364953 
L 247.465104 266.288643 
L 241.756802 264.983112 
L 240.612618 264.979989 
L 239.467527 264.74903 
L 237.174887 264.025365 
L 236.027272 263.5585 
L 233.729519 263.391842 
L 232.579316 262.900117 
L 229.123787 262.307904 
L 227.970218 261.903098 
L 224.504399 261.912379 
L 223.347464 261.529587 
L 222.189624 261.747608 
L 221.031007 261.654463 
L 219.871484 261.328935 
L 218.71112 261.36644 
L 216.387802 260.82995 
L 215.224914 260.732 
L 214.061119 260.455649 
L 212.896483 260.482187 
L 211.731006 259.936214 
L 208.229461 259.645959 
L 207.060618 259.67675 
L 204.720279 258.94925 
L 203.548783 258.865643 
L 201.203331 258.356164 
L 198.854514 257.76245 
L 197.678746 257.534713 
L 195.324816 256.060115 
L 194.146524 255.429511 
L 192.967391 255.077869 
L 189.424879 253.508265 
L 188.242315 252.376631 
L 187.05891 251.72072 
L 182.316749 248.372032 
L 181.129072 247.248293 
L 178.751196 244.52848 
L 177.560931 243.712225 
L 176.369824 242.555758 
L 168.008263 233.220617 
L 166.810296 231.899635 
L 165.611488 231.068109 
L 164.411903 229.870632 
L 163.211348 228.249038 
L 162.010015 226.917862 
L 160.807777 225.771854 
L 159.604698 224.874913 
L 157.196014 222.598267 
L 155.990346 222.432524 
L 154.783901 221.446915 
L 153.57655 220.918502 
L 152.368293 220.010546 
L 151.159259 219.696323 
L 149.949319 219.231276 
L 145.101081 218.530406 
L 143.886869 218.854827 
L 141.455923 218.555871 
L 140.239187 218.148649 
L 139.021545 218.032741 
L 136.583738 219.22404 
L 135.363508 218.78831 
L 132.920588 220.109877 
L 131.697833 220.597146 
L 130.474237 220.820398 
L 129.249736 221.315801 
L 128.024392 222.287834 
L 126.798208 221.761829 
L 125.571182 224.031908 
L 124.343314 224.357569 
L 123.114541 225.534079 
L 121.884926 226.533659 
L 120.65447 227.183661 
L 119.423172 229.432458 
L 118.190969 228.552233 
L 115.724102 231.681582 
L 114.489375 231.911859 
L 113.253741 234.697021 
L 112.017331 236.183027 
L 110.780014 233.903518 
L 109.541856 232.552947 
L 108.302857 238.85738 
L 107.062952 241.22645 
L 105.822205 239.457166 
L 104.580682 243.253349 
L 103.338253 242.982193 
L 102.094917 243.823607 
L 100.850805 250.299296 
L 99.605787 239.640284 
L 98.359928 253.522632 
L 97.113227 253.111422 
L 95.865684 248.798708 
L 94.617301 260.927788 
L 93.368011 258.218469 
L 92.11788 252.152719 
L 90.866908 257.989766 
L 89.615094 246.186764 
L 88.362439 245.186783 
L 87.108878 256.347137 
L 85.854475 252.571254 
L 84.599296 268.83584 
L 83.343211 259.19732 
L 82.08622 257.40276 
L 80.828452 271.732451 
L 79.569778 277.030754 
L 78.310327 283.039324 
L 77.04997 299.727275 
L 75.788772 270.454102 
L 74.526668 248.429963 
L 73.263787 265.657734 
L 72 261.097441 
L 72 261.097441 
" clip-path="url(#p954ccec4f2)" style="fill: none; stroke: #000000; stroke-width: 1.5; stroke-linecap: square"/>
   </g>
   <g id="line2d_60">
    <path d="M 276.807263 267.699771 
L 275.68929 267.748403 
L 274.570476 267.931994 
L 273.450756 268.505434 
L 272.330259 269.978783 
L 271.208921 273.066467 
L 270.086676 278.268823 
L 268.963655 285.12274 
L 267.839793 291.743257 
L 266.715024 295.468289 
L 265.589479 294.530112 
L 264.463028 289.378712 
L 263.335736 282.341108 
L 262.207667 275.960137 
L 261.078691 271.58838 
L 259.948875 269.223114 
L 258.818217 268.191711 
L 257.686718 267.82523 
L 256.554377 267.718433 
L 255.421195 267.692805 
L 254.287172 267.687727 
" clip-path="url(#p954ccec4f2)" style="fill: none; stroke: #ff0000; stroke-width: 1.5; stroke-linecap: square"/>
   </g>
   <g id="patch_9">
    <path d="M 72 356.103529 
L 72 225.656471 
" style="fill: none; stroke: #000000; stroke-width: 0.8; stroke-linejoin: miter; stroke-linecap: square"/>
   </g>
   <g id="patch_10">
    <path d="M 518.4 356.103529 
L 518.4 225.656471 
" style="fill: none; stroke: #000000; stroke-width: 0.8; stroke-linejoin: miter; stroke-linecap: square"/>
   </g>
   <g id="patch_11">
    <path d="M 72 356.103529 
L 518.4 356.103529 
" style="fill: none; stroke: #000000; stroke-width: 0.8; stroke-linejoin: miter; stroke-linecap: square"/>
   </g>
   <g id="patch_12">
    <path d="M 72 225.656471 
L 518.4 225.656471 
" style="fill: none; stroke: #000000; stroke-width: 0.8; stroke-linejoin: miter; stroke-linecap: square"/>
   </g>
   <g id="legend_2">
    <g id="patch_13">
     <path d="M 430.55625 263.012721 
L 511.4 263.012721 
Q 513.4 263.012721 513.4 261.012721 
L 513.4 232.656471 
Q 513.4 230.656471 511.4 230.656471 
L 430.55625 230.656471 
Q 428.55625 230.656471 428.55625 232.656471 
L 428.55625 261.012721 
Q 428.55625 263.012721 430.55625 263.012721 
z
" style="fill: #ffffff; opacity: 0.8; stroke: #cccccc; stroke-linejoin: miter"/>
    </g>
    <g id="line2d_61">
     <path d="M 432.55625 238.754908 
L 442.55625 238.754908 
L 452.55625 238.754908 
" style="fill: none; stroke: #000000; stroke-width: 1.5; stroke-linecap: square"/>
    </g>
    <g id="text_32">
     <!-- Measured -->
     <g transform="translate(460.55625 242.254908) scale(0.1 -0.1)">
      <defs>
       <path id="DejaVuSans-4d" d="M 628 4666 
L 1569 4666 
L 2759 1491 
L 3956 4666 
L 4897 4666 
L 4897 0 
L 4281 0 
L 4281 4097 
L 3078 897 
L 2444 897 
L 1241 4097 
L 1241 0 
L 628 0 
L 628 4666 
z
" transform="scale(0.015625)"/>
       <path id="DejaVuSans-64" d="M 2906 2969 
L 2906 4863 
L 3481 4863 
L 3481 0 
L 2906 0 
L 2906 525 
Q 2725 213 2448 61 
Q 2172 -91 1784 -91 
Q 1150 -91 751 415 
Q 353 922 353 1747 
Q 353 2572 751 3078 
Q 1150 3584 1784 3584 
Q 2172 3584 2448 3432 
Q 2725 3281 2906 2969 
z
M 947 1747 
Q 947 1113 1208 752 
Q 1469 391 1925 391 
Q 2381 391 2643 752 
Q 2906 1113 2906 1747 
Q 2906 2381 2643 2742 
Q 2381 3103 1925 3103 
Q 1469 3103 1208 2742 
Q 947 2381 947 1747 
z
" transform="scale(0.015625)"/>
      </defs>
      <use xlink:href="#DejaVuSans-4d"/>
      <use xlink:href="#DejaVuSans-65" x="86.279297"/>
      <use xlink:href="#DejaVuSans-61" x="147.802734"/>
      <use xlink:href="#DejaVuSans-73" x="209.082031"/>
      <use xlink:href="#DejaVuSans-75" x="261.181641"/>
      <use xlink:href="#DejaVuSans-72" x="324.560547"/>
      <use xlink:href="#DejaVuSans-65" x="363.423828"/>
      <use xlink:href="#DejaVuSans-64" x="424.947266"/>
     </g>
    </g>
    <g id="line2d_62">
     <path d="M 432.55625 253.433033 
L 442.55625 253.433033 
L 452.55625 253.433033 
" style="fill: none; stroke: #ff0000; stroke-width: 1.5; stroke-linecap: square"/>
    </g>
    <g id="text_33">
     <!-- fit -->
     <g transform="translate(460.55625 256.933033) scale(0.1 -0.1)">
      <use xlink:href="#DejaVuSans-66"/>
      <use xlink:href="#DejaVuSans-69" x="35.205078"/>
      <use xlink:href="#DejaVuSans-74" x="62.988281"/>
     </g>
    </g>
   </g>
  </g>
  <g id="axes_3">
   <g id="patch_14">
    <path d="M 72 512.64 
L 518.4 512.64 
L 518.4 382.192941 
L 72 382.192941 
z
" style="fill: #ffffff"/>
   </g>
   <g id="matplotlib.axis_5">
    <g id="xtick_15">
     <g id="line2d_63">
      <path d="M 74.496832 512.64 
L 74.496832 382.192941 
" clip-path="url(#pbc8a9150ad)" style="fill: none; stroke: #b0b0b0; stroke-width: 0.8; stroke-linecap: square"/>
     </g>
     <g id="line2d_64">
      <g>
       <use xlink:href="#m9c846dcfd2" x="74.496832" y="512.64" style="stroke: #000000; stroke-width: 0.8"/>
      </g>
     </g>
     <g id="text_34">
      <!-- 1520 -->
      <g transform="translate(61.771832 527.238438) scale(0.1 -0.1)">
       <use xlink:href="#DejaVuSans-31"/>
       <use xlink:href="#DejaVuSans-35" x="63.623047"/>
       <use xlink:href="#DejaVuSans-32" x="127.246094"/>
       <use xlink:href="#DejaVuSans-30" x="190.869141"/>
      </g>
     </g>
    </g>
    <g id="xtick_16">
     <g id="line2d_65">
      <path d="M 139.216806 512.64 
L 139.216806 382.192941 
" clip-path="url(#pbc8a9150ad)" style="fill: none; stroke: #b0b0b0; stroke-width: 0.8; stroke-linecap: square"/>
     </g>
     <g id="line2d_66">
      <g>
       <use xlink:href="#m9c846dcfd2" x="139.216806" y="512.64" style="stroke: #000000; stroke-width: 0.8"/>
      </g>
     </g>
     <g id="text_35">
      <!-- 1530 -->
      <g transform="translate(126.491806 527.238438) scale(0.1 -0.1)">
       <use xlink:href="#DejaVuSans-31"/>
       <use xlink:href="#DejaVuSans-35" x="63.623047"/>
       <use xlink:href="#DejaVuSans-33" x="127.246094"/>
       <use xlink:href="#DejaVuSans-30" x="190.869141"/>
      </g>
     </g>
    </g>
    <g id="xtick_17">
     <g id="line2d_67">
      <path d="M 203.936779 512.64 
L 203.936779 382.192941 
" clip-path="url(#pbc8a9150ad)" style="fill: none; stroke: #b0b0b0; stroke-width: 0.8; stroke-linecap: square"/>
     </g>
     <g id="line2d_68">
      <g>
       <use xlink:href="#m9c846dcfd2" x="203.936779" y="512.64" style="stroke: #000000; stroke-width: 0.8"/>
      </g>
     </g>
     <g id="text_36">
      <!-- 1540 -->
      <g transform="translate(191.211779 527.238438) scale(0.1 -0.1)">
       <use xlink:href="#DejaVuSans-31"/>
       <use xlink:href="#DejaVuSans-35" x="63.623047"/>
       <use xlink:href="#DejaVuSans-34" x="127.246094"/>
       <use xlink:href="#DejaVuSans-30" x="190.869141"/>
      </g>
     </g>
    </g>
    <g id="xtick_18">
     <g id="line2d_69">
      <path d="M 268.656753 512.64 
L 268.656753 382.192941 
" clip-path="url(#pbc8a9150ad)" style="fill: none; stroke: #b0b0b0; stroke-width: 0.8; stroke-linecap: square"/>
     </g>
     <g id="line2d_70">
      <g>
       <use xlink:href="#m9c846dcfd2" x="268.656753" y="512.64" style="stroke: #000000; stroke-width: 0.8"/>
      </g>
     </g>
     <g id="text_37">
      <!-- 1550 -->
      <g transform="translate(255.931753 527.238438) scale(0.1 -0.1)">
       <use xlink:href="#DejaVuSans-31"/>
       <use xlink:href="#DejaVuSans-35" x="63.623047"/>
       <use xlink:href="#DejaVuSans-35" x="127.246094"/>
       <use xlink:href="#DejaVuSans-30" x="190.869141"/>
      </g>
     </g>
    </g>
    <g id="xtick_19">
     <g id="line2d_71">
      <path d="M 333.376727 512.64 
L 333.376727 382.192941 
" clip-path="url(#pbc8a9150ad)" style="fill: none; stroke: #b0b0b0; stroke-width: 0.8; stroke-linecap: square"/>
     </g>
     <g id="line2d_72">
      <g>
       <use xlink:href="#m9c846dcfd2" x="333.376727" y="512.64" style="stroke: #000000; stroke-width: 0.8"/>
      </g>
     </g>
     <g id="text_38">
      <!-- 1560 -->
      <g transform="translate(320.651727 527.238438) scale(0.1 -0.1)">
       <use xlink:href="#DejaVuSans-31"/>
       <use xlink:href="#DejaVuSans-35" x="63.623047"/>
       <use xlink:href="#DejaVuSans-36" x="127.246094"/>
       <use xlink:href="#DejaVuSans-30" x="190.869141"/>
      </g>
     </g>
    </g>
    <g id="xtick_20">
     <g id="line2d_73">
      <path d="M 398.096701 512.64 
L 398.096701 382.192941 
" clip-path="url(#pbc8a9150ad)" style="fill: none; stroke: #b0b0b0; stroke-width: 0.8; stroke-linecap: square"/>
     </g>
     <g id="line2d_74">
      <g>
       <use xlink:href="#m9c846dcfd2" x="398.096701" y="512.64" style="stroke: #000000; stroke-width: 0.8"/>
      </g>
     </g>
     <g id="text_39">
      <!-- 1570 -->
      <g transform="translate(385.371701 527.238438) scale(0.1 -0.1)">
       <use xlink:href="#DejaVuSans-31"/>
       <use xlink:href="#DejaVuSans-35" x="63.623047"/>
       <use xlink:href="#DejaVuSans-37" x="127.246094"/>
       <use xlink:href="#DejaVuSans-30" x="190.869141"/>
      </g>
     </g>
    </g>
    <g id="xtick_21">
     <g id="line2d_75">
      <path d="M 462.816674 512.64 
L 462.816674 382.192941 
" clip-path="url(#pbc8a9150ad)" style="fill: none; stroke: #b0b0b0; stroke-width: 0.8; stroke-linecap: square"/>
     </g>
     <g id="line2d_76">
      <g>
       <use xlink:href="#m9c846dcfd2" x="462.816674" y="512.64" style="stroke: #000000; stroke-width: 0.8"/>
      </g>
     </g>
     <g id="text_40">
      <!-- 1580 -->
      <g transform="translate(450.091674 527.238438) scale(0.1 -0.1)">
       <use xlink:href="#DejaVuSans-31"/>
       <use xlink:href="#DejaVuSans-35" x="63.623047"/>
       <use xlink:href="#DejaVuSans-38" x="127.246094"/>
       <use xlink:href="#DejaVuSans-30" x="190.869141"/>
      </g>
     </g>
    </g>
    <g id="text_41">
     <!-- $\lambda$ (nm) -->
     <g transform="translate(272.1 543.955938) scale(0.14 -0.14)">
      <defs>
       <path id="DejaVuSans-Oblique-3bb" d="M 2350 4316 
L 3125 0 
L 2516 0 
L 2038 2588 
L 328 0 
L -281 0 
L 1903 3356 
L 1794 3975 
Q 1725 4369 1391 4369 
L 1091 4369 
L 1184 4863 
L 1550 4856 
Q 2253 4847 2350 4316 
z
" transform="scale(0.015625)"/>
       <path id="DejaVuSans-28" d="M 1984 4856 
Q 1566 4138 1362 3434 
Q 1159 2731 1159 2009 
Q 1159 1288 1364 580 
Q 1569 -128 1984 -844 
L 1484 -844 
Q 1016 -109 783 600 
Q 550 1309 550 2009 
Q 550 2706 781 3412 
Q 1013 4119 1484 4856 
L 1984 4856 
z
" transform="scale(0.015625)"/>
       <path id="DejaVuSans-29" d="M 513 4856 
L 1013 4856 
Q 1481 4119 1714 3412 
Q 1947 2706 1947 2009 
Q 1947 1309 1714 600 
Q 1481 -109 1013 -844 
L 513 -844 
Q 928 -128 1133 580 
Q 1338 1288 1338 2009 
Q 1338 2731 1133 3434 
Q 928 4138 513 4856 
z
" transform="scale(0.015625)"/>
      </defs>
      <use xlink:href="#DejaVuSans-Oblique-3bb" transform="translate(0 0.015625)"/>
      <use xlink:href="#DejaVuSans-20" transform="translate(59.179688 0.015625)"/>
      <use xlink:href="#DejaVuSans-28" transform="translate(90.966797 0.015625)"/>
      <use xlink:href="#DejaVuSans-6e" transform="translate(129.980469 0.015625)"/>
      <use xlink:href="#DejaVuSans-6d" transform="translate(193.359375 0.015625)"/>
      <use xlink:href="#DejaVuSans-29" transform="translate(290.771484 0.015625)"/>
     </g>
    </g>
   </g>
   <g id="matplotlib.axis_6">
    <g id="ytick_13">
     <g id="line2d_77">
      <path d="M 72 512.64 
L 518.4 512.64 
" clip-path="url(#pbc8a9150ad)" style="fill: none; stroke: #b0b0b0; stroke-width: 0.8; stroke-linecap: square"/>
     </g>
     <g id="line2d_78">
      <g>
       <use xlink:href="#m85090ad314" x="72" y="512.64" style="stroke: #000000; stroke-width: 0.8"/>
      </g>
     </g>
     <g id="text_42">
      <!-- 0.0 -->
      <g transform="translate(49.096875 516.439219) scale(0.1 -0.1)">
       <use xlink:href="#DejaVuSans-30"/>
       <use xlink:href="#DejaVuSans-2e" x="63.623047"/>
       <use xlink:href="#DejaVuSans-30" x="95.410156"/>
      </g>
     </g>
    </g>
    <g id="ytick_14">
     <g id="line2d_79">
      <path d="M 72 486.550588 
L 518.4 486.550588 
" clip-path="url(#pbc8a9150ad)" style="fill: none; stroke: #b0b0b0; stroke-width: 0.8; stroke-linecap: square"/>
     </g>
     <g id="line2d_80">
      <g>
       <use xlink:href="#m85090ad314" x="72" y="486.550588" style="stroke: #000000; stroke-width: 0.8"/>
      </g>
     </g>
     <g id="text_43">
      <!-- 0.2 -->
      <g transform="translate(49.096875 490.349807) scale(0.1 -0.1)">
       <use xlink:href="#DejaVuSans-30"/>
       <use xlink:href="#DejaVuSans-2e" x="63.623047"/>
       <use xlink:href="#DejaVuSans-32" x="95.410156"/>
      </g>
     </g>
    </g>
    <g id="ytick_15">
     <g id="line2d_81">
      <path d="M 72 460.461176 
L 518.4 460.461176 
" clip-path="url(#pbc8a9150ad)" style="fill: none; stroke: #b0b0b0; stroke-width: 0.8; stroke-linecap: square"/>
     </g>
     <g id="line2d_82">
      <g>
       <use xlink:href="#m85090ad314" x="72" y="460.461176" style="stroke: #000000; stroke-width: 0.8"/>
      </g>
     </g>
     <g id="text_44">
      <!-- 0.4 -->
      <g transform="translate(49.096875 464.260395) scale(0.1 -0.1)">
       <use xlink:href="#DejaVuSans-30"/>
       <use xlink:href="#DejaVuSans-2e" x="63.623047"/>
       <use xlink:href="#DejaVuSans-34" x="95.410156"/>
      </g>
     </g>
    </g>
    <g id="ytick_16">
     <g id="line2d_83">
      <path d="M 72 434.371765 
L 518.4 434.371765 
" clip-path="url(#pbc8a9150ad)" style="fill: none; stroke: #b0b0b0; stroke-width: 0.8; stroke-linecap: square"/>
     </g>
     <g id="line2d_84">
      <g>
       <use xlink:href="#m85090ad314" x="72" y="434.371765" style="stroke: #000000; stroke-width: 0.8"/>
      </g>
     </g>
     <g id="text_45">
      <!-- 0.6 -->
      <g transform="translate(49.096875 438.170983) scale(0.1 -0.1)">
       <use xlink:href="#DejaVuSans-30"/>
       <use xlink:href="#DejaVuSans-2e" x="63.623047"/>
       <use xlink:href="#DejaVuSans-36" x="95.410156"/>
      </g>
     </g>
    </g>
    <g id="ytick_17">
     <g id="line2d_85">
      <path d="M 72 408.282353 
L 518.4 408.282353 
" clip-path="url(#pbc8a9150ad)" style="fill: none; stroke: #b0b0b0; stroke-width: 0.8; stroke-linecap: square"/>
     </g>
     <g id="line2d_86">
      <g>
       <use xlink:href="#m85090ad314" x="72" y="408.282353" style="stroke: #000000; stroke-width: 0.8"/>
      </g>
     </g>
     <g id="text_46">
      <!-- 0.8 -->
      <g transform="translate(49.096875 412.081572) scale(0.1 -0.1)">
       <use xlink:href="#DejaVuSans-30"/>
       <use xlink:href="#DejaVuSans-2e" x="63.623047"/>
       <use xlink:href="#DejaVuSans-38" x="95.410156"/>
      </g>
     </g>
    </g>
    <g id="ytick_18">
     <g id="line2d_87">
      <path d="M 72 382.192941 
L 518.4 382.192941 
" clip-path="url(#pbc8a9150ad)" style="fill: none; stroke: #b0b0b0; stroke-width: 0.8; stroke-linecap: square"/>
     </g>
     <g id="line2d_88">
      <g>
       <use xlink:href="#m85090ad314" x="72" y="382.192941" style="stroke: #000000; stroke-width: 0.8"/>
      </g>
     </g>
     <g id="text_47">
      <!-- 1.0 -->
      <g transform="translate(49.096875 385.99216) scale(0.1 -0.1)">
       <use xlink:href="#DejaVuSans-31"/>
       <use xlink:href="#DejaVuSans-2e" x="63.623047"/>
       <use xlink:href="#DejaVuSans-30" x="95.410156"/>
      </g>
     </g>
    </g>
    <g id="text_48">
     <!-- Reflection -->
     <g transform="translate(42.185312 482.245846) rotate(-90) scale(0.14 -0.14)">
      <use xlink:href="#DejaVuSans-52"/>
      <use xlink:href="#DejaVuSans-65" x="64.982422"/>
      <use xlink:href="#DejaVuSans-66" x="126.505859"/>
      <use xlink:href="#DejaVuSans-6c" x="161.710938"/>
      <use xlink:href="#DejaVuSans-65" x="189.494141"/>
      <use xlink:href="#DejaVuSans-63" x="251.017578"/>
      <use xlink:href="#DejaVuSans-74" x="305.998047"/>
      <use xlink:href="#DejaVuSans-69" x="345.207031"/>
      <use xlink:href="#DejaVuSans-6f" x="372.990234"/>
      <use xlink:href="#DejaVuSans-6e" x="434.171875"/>
     </g>
    </g>
   </g>
   <g id="line2d_89">
    <path d="M 518.4 509.703448 
L 517.477093 513.022726 
L 516.55341 514.170904 
L 515.62895 513.793645 
L 514.703648 512.997324 
L 513.777505 515.163599 
L 512.850521 510.869053 
L 511.92276 512.64 
L 510.994223 512.983639 
L 510.064844 510.533343 
L 509.134624 511.609083 
L 508.203627 510.964581 
L 507.271789 514.601664 
L 505.405718 507.675543 
L 504.47142 513.327278 
L 503.536346 511.068888 
L 502.600431 511.011871 
L 501.663738 507.592802 
L 500.726205 511.3782 
L 499.787895 509.938154 
L 498.848743 511.122046 
L 497.90875 513.261194 
L 496.967981 512.332946 
L 496.02637 510.878069 
L 495.083982 510.264848 
L 494.140753 512.64 
L 492.251901 511.53754 
L 491.306213 514.071829 
L 490.359748 510.133805 
L 489.412506 508.714401 
L 488.464423 510.761973 
L 487.515499 510.528754 
L 486.565798 512.117313 
L 485.615256 510.792659 
L 484.663872 513.688769 
L 483.711712 511.401424 
L 482.758775 513.39708 
L 481.804932 513.946718 
L 480.850377 509.956293 
L 479.894981 511.655181 
L 478.938743 511.189308 
L 477.981664 511.202222 
L 477.023809 511.483049 
L 476.065177 513.610032 
L 475.105703 514.98073 
L 474.145388 512.407945 
L 473.184296 512.868768 
L 472.222363 513.084932 
L 471.259654 510.939891 
L 470.296103 513.279223 
L 469.331775 513.87921 
L 468.366606 513.049925 
L 467.400596 513.230892 
L 466.433809 513.833426 
L 465.466181 512.254534 
L 464.497776 513.011288 
L 463.528529 513.957684 
L 462.558506 509.76231 
L 461.587642 511.226343 
L 459.643454 512.64 
L 458.67013 511.767914 
L 457.69603 509.883297 
L 456.721088 511.316145 
L 455.74537 511.056565 
L 454.768746 513.113175 
L 453.791409 512.334109 
L 452.813232 512.343651 
L 451.834213 512.05693 
L 450.854417 512.64 
L 449.87378 512.216459 
L 448.892301 513.336165 
L 447.910046 511.580916 
L 446.92695 513.181073 
L 445.943077 512.510998 
L 444.958363 512.26146 
L 443.972872 512.516521 
L 442.986539 513.499098 
L 441.999365 512.167748 
L 441.011415 511.034073 
L 439.03299 512.312614 
L 438.04258 511.803159 
L 437.051394 512.950996 
L 436.059301 512.244141 
L 434.072787 512.359924 
L 433.078299 512.001259 
L 432.082971 512.032165 
L 431.086866 512.471056 
L 430.089919 511.821812 
L 428.093567 513.34426 
L 427.094226 512.256547 
L 426.093979 512.273264 
L 425.092955 511.862829 
L 424.091154 511.698641 
L 423.088448 512.243818 
L 422.084965 512.388034 
L 421.080705 512.762542 
L 420.075604 512.756952 
L 419.069661 512.46987 
L 418.062877 512.64 
L 417.055317 512.693269 
L 416.04698 513.000055 
L 415.037736 512.295523 
L 414.027716 512.781925 
L 413.01692 512.776719 
L 412.005217 512.030527 
L 410.992738 512.053299 
L 409.979482 512.237231 
L 408.96532 512.133576 
L 407.950381 512.677508 
L 406.934666 512.531555 
L 403.882472 512.830311 
L 402.863456 512.304029 
L 400.8229 512.668079 
L 399.801425 512.532684 
L 398.779108 512.588694 
L 397.75595 512.468649 
L 396.732015 512.781222 
L 394.681622 512.358924 
L 392.627928 512.423551 
L 390.570997 512.443689 
L 389.541303 512.691208 
L 388.510766 512.345094 
L 385.414175 512.654064 
L 384.380402 512.666829 
L 383.345724 512.500131 
L 380.236836 512.507197 
L 379.198857 512.64 
L 378.160101 512.428494 
L 377.120504 512.649642 
L 375.038851 512.526038 
L 373.996795 512.522428 
L 369.820285 512.597845 
L 362.479552 512.619591 
L 359.321087 512.544555 
L 355.098239 512.609347 
L 292.37054 512.587726 
L 285.720757 512.559522 
L 277.924394 512.587904 
L 274.570476 512.412908 
L 273.450756 512.165368 
L 272.330259 511.615636 
L 271.208921 510.483894 
L 268.963655 505.524765 
L 266.715024 500.933006 
L 265.589479 501.538354 
L 263.335736 506.175919 
L 262.207667 508.827439 
L 261.078691 510.638481 
L 259.948875 511.596843 
L 258.818217 512.137434 
L 257.686718 512.392462 
L 255.421195 512.549421 
L 248.60424 512.541484 
L 241.756802 512.618861 
L 239.467527 512.566086 
L 234.878816 512.59048 
L 233.729519 512.501424 
L 231.428336 512.571292 
L 226.815808 512.577492 
L 223.347464 512.578359 
L 210.564687 512.495809 
L 209.397527 512.598006 
L 208.229461 512.513368 
L 201.203331 512.587164 
L 194.146524 512.490666 
L 192.967391 512.324125 
L 190.606536 512.553411 
L 188.242315 512.502571 
L 184.689577 512.650435 
L 178.751196 512.513721 
L 148.738538 512.594287 
L 142.671817 512.585662 
L 140.239187 512.403545 
L 137.803063 512.528363 
L 136.583738 512.374008 
L 135.363508 512.64 
L 134.142501 512.662432 
L 132.920588 512.463871 
L 130.474237 512.555938 
L 129.249736 512.933655 
L 126.798208 512.405383 
L 125.571182 512.550521 
L 124.343314 511.928501 
L 123.114541 512.35404 
L 121.884926 511.811355 
L 120.65447 512.495794 
L 119.423172 511.787952 
L 118.190969 511.72957 
L 116.957989 510.957601 
L 115.724102 512.52658 
L 114.489375 514.322399 
L 113.253741 510.723776 
L 112.017331 511.334489 
L 110.780014 512.99575 
L 109.541856 513.365346 
L 108.302857 513.935538 
L 107.062952 510.649556 
L 105.822205 514.487341 
L 104.580682 508.843817 
L 103.338253 512.64 
L 102.094917 511.344462 
L 100.850805 509.275201 
L 99.605787 506.597096 
L 98.359928 508.274855 
L 97.113227 506.788176 
L 95.865684 512.086882 
L 94.617301 509.755887 
L 93.368011 512.028218 
L 92.11788 506.626317 
L 90.866908 514.904164 
L 89.615094 504.788802 
L 88.362439 523.342493 
L 87.108878 507.889696 
L 85.854475 513.675323 
L 84.599296 499.614972 
L 83.343211 498.796256 
L 82.08622 518.023678 
L 80.828452 509.024097 
L 79.569778 500.863204 
L 78.310327 506.230859 
L 77.04997 501.974222 
L 75.788772 495.510114 
L 74.526668 498.283524 
L 73.263787 515.870207 
L 72 500.764239 
L 72 500.764239 
" clip-path="url(#pbc8a9150ad)" style="fill: none; stroke: #000000; stroke-width: 1.5; stroke-linecap: square"/>
   </g>
   <g id="line2d_90">
    <path d="M 276.807263 512.632109 
L 275.68929 512.605842 
L 274.570476 512.514453 
L 273.450756 512.248311 
L 272.330259 511.60325 
L 271.208921 510.312577 
L 270.086676 508.210068 
L 268.963655 505.494294 
L 267.839793 502.87492 
L 266.715024 501.338701 
L 265.589479 501.567816 
L 264.463028 503.460328 
L 263.335736 506.202076 
L 262.207667 508.821949 
L 261.078691 510.726069 
L 259.948875 511.829324 
L 258.818217 512.349971 
L 257.686718 512.552391 
L 256.554377 512.617664 
L 255.421195 512.635196 
L 254.287172 512.639128 
" clip-path="url(#pbc8a9150ad)" style="fill: none; stroke: #1f77b4; stroke-width: 1.5; stroke-linecap: square"/>
   </g>
   <g id="patch_15">
    <path d="M 72 512.64 
L 72 382.192941 
" style="fill: none; stroke: #000000; stroke-width: 0.8; stroke-linejoin: miter; stroke-linecap: square"/>
   </g>
   <g id="patch_16">
    <path d="M 518.4 512.64 
L 518.4 382.192941 
" style="fill: none; stroke: #000000; stroke-width: 0.8; stroke-linejoin: miter; stroke-linecap: square"/>
   </g>
   <g id="patch_17">
    <path d="M 72 512.64 
L 518.4 512.64 
" style="fill: none; stroke: #000000; stroke-width: 0.8; stroke-linejoin: miter; stroke-linecap: square"/>
   </g>
   <g id="patch_18">
    <path d="M 72 382.192941 
L 518.4 382.192941 
" style="fill: none; stroke: #000000; stroke-width: 0.8; stroke-linejoin: miter; stroke-linecap: square"/>
   </g>
   <g id="legend_3">
    <g id="patch_19">
     <path d="M 430.55625 419.549191 
L 511.4 419.549191 
Q 513.4 419.549191 513.4 417.549191 
L 513.4 389.192941 
Q 513.4 387.192941 511.4 387.192941 
L 430.55625 387.192941 
Q 428.55625 387.192941 428.55625 389.192941 
L 428.55625 417.549191 
Q 428.55625 419.549191 430.55625 419.549191 
z
" style="fill: #ffffff; opacity: 0.8; stroke: #cccccc; stroke-linejoin: miter"/>
    </g>
    <g id="line2d_91">
     <path d="M 432.55625 395.291379 
L 442.55625 395.291379 
L 452.55625 395.291379 
" style="fill: none; stroke: #000000; stroke-width: 1.5; stroke-linecap: square"/>
    </g>
    <g id="text_49">
     <!-- Measured -->
     <g transform="translate(460.55625 398.791379) scale(0.1 -0.1)">
      <use xlink:href="#DejaVuSans-4d"/>
      <use xlink:href="#DejaVuSans-65" x="86.279297"/>
      <use xlink:href="#DejaVuSans-61" x="147.802734"/>
      <use xlink:href="#DejaVuSans-73" x="209.082031"/>
      <use xlink:href="#DejaVuSans-75" x="261.181641"/>
      <use xlink:href="#DejaVuSans-72" x="324.560547"/>
      <use xlink:href="#DejaVuSans-65" x="363.423828"/>
      <use xlink:href="#DejaVuSans-64" x="424.947266"/>
     </g>
    </g>
    <g id="line2d_92">
     <path d="M 432.55625 409.969504 
L 442.55625 409.969504 
L 452.55625 409.969504 
" style="fill: none; stroke: #1f77b4; stroke-width: 1.5; stroke-linecap: square"/>
    </g>
    <g id="text_50">
     <!-- fit -->
     <g transform="translate(460.55625 413.469504) scale(0.1 -0.1)">
      <use xlink:href="#DejaVuSans-66"/>
      <use xlink:href="#DejaVuSans-69" x="35.205078"/>
      <use xlink:href="#DejaVuSans-74" x="62.988281"/>
     </g>
    </g>
   </g>
  </g>
 </g>
 <defs>
  <clipPath id="pa40254eb80">
   <rect x="72" y="69.12" width="446.4" height="130.447059"/>
  </clipPath>
  <clipPath id="p954ccec4f2">
   <rect x="72" y="225.656471" width="446.4" height="130.447059"/>
  </clipPath>
  <clipPath id="pbc8a9150ad">
   <rect x="72" y="382.192941" width="446.4" height="130.447059"/>
  </clipPath>
 </defs>
</svg>
